<svg id="Слой_1" data-name="Слой 1" xmlns="http://www.w3.org/2000/svg" viewBox="0 0 422.333 88.145"><defs><clipPath id="clip-path"><path d="M36.972 38.992H13.556q.093-.578.206-1.148h.022A31.848 31.848 0 0138.75 12.871v-.021q.57-.114 1.148-.206v26.349h10.177V.29a44.78 44.78 0 00-10.177 0v.021q-.576.065-1.148.147v-.02a44.102 44.102 0 00-37.4 37.407h.02q-.08.571-.146 1.147h-.02a44.713 44.713 0 00.001 10.177h35.767zm13.103 0H39.898v10.177h10.177zM39.898 49.169v38.685a44.668 44.668 0 0010.177 0v-.02q.576-.067 1.148-.147v.02a44.1 44.1 0 0037.396-37.39h-.02q.081-.572.148-1.148h.02a44.736 44.736 0 00.002-10.177H53.01v10.177h23.404q-.094.578-.207 1.148h-.02a31.848 31.848 0 01-24.964 24.956v.022c-.38.076-.763.143-1.148.206V49.169z" fill="none" clip-rule="evenodd"/></clipPath><style>.cls-2{fill:#ebebeb}.cls-4{fill:#a30103}.cls-5{fill:#a20002}.cls-6{fill:#a10002}.cls-7{fill:#9f0002}.cls-8{fill:#9e0002}.cls-9{fill:#9d0001}.cls-10{fill:#9c0001}.cls-11{fill:#9a0001}.cls-12{fill:#990001}.cls-13{fill:#980000}.cls-14{fill:#960000}.cls-15{fill:#950000}.cls-16{fill:#ff0015}.cls-17{fill:#fd0015}.cls-18{fill:#fc0015}.cls-19{fill:#fb0015}.cls-20{fill:#fa0015}.cls-21{fill:#f90015}.cls-22{fill:#f80015}.cls-23{fill:#f70014}.cls-24{fill:#f60014}.cls-25{fill:#f50014}.cls-27{fill:#f30014}.cls-32{fill:#ee0014}.cls-37{fill:#e90013}.cls-41{fill:#e50013}.cls-58{fill:#d10011}.cls-59{fill:#d00011}.cls-60{fill:#cf0011}.cls-61{fill:#ce0011}.cls-62{fill:#cd0011}.cls-63{fill:#c01}.cls-77{fill:#de0011}.cls-97{fill:#f20011}.cls-103{fill:#f80011}.cls-105{fill:#fa0011}.cls-107{fill:#fc0011}.cls-134{fill:#c8000d}.cls-135{fill:#c6000d}.cls-136{fill:#c4000d}.cls-138{fill:#c5000d}.cls-139{fill:#c7000d}.cls-140{fill:#c9010d}.cls-141{fill:#ca010d}.cls-142{fill:#cb010d}.cls-143{fill:#cc010d}.cls-144{fill:#cd010d}.cls-145{fill:#ce010d}.cls-146{fill:#cf010d}.cls-147{fill:#d0010d}.cls-148{fill:#d1010d}.cls-149{fill:#d2010d}.cls-150{fill:#d3010d}.cls-163{fill:#de020e}.cls-168{fill:#e3030e}</style></defs><path class="cls-2" d="M130.856 34.6h2.352v6.046h-2.352v3.426h-6.584v-3.426h-9.876V34.6l6.483-14.042h7.625L121.92 34.6h2.352v-3.292h6.584zm1.174-14.042h17.804v6.517h-5.543v16.997h-6.718V27.075h-5.543zm40.646 23.514h-7.222l-.807-3.023h-6.785l-.806 3.023h-7.223l7.492-23.514h7.86zm-11.421-15.62l-1.949 7.222h3.897zm19.482-7.894v16.998h7.726v6.516H174.02V20.558zm16.46 14.713v2.62h8.734v6.181h-15.452V20.558h15.284v6.114h-8.566v2.552h7.726v6.047zm14.723-14.713h8.399a7.231 7.231 0 017.39 7.39 7.231 7.231 0 01-7.39 7.39h-6.047v8.734h-2.351zm2.352 12.564h6.047a4.809 4.809 0 003.594-1.445 5.047 5.047 0 001.444-3.729 5.008 5.008 0 00-1.444-3.695 4.756 4.756 0 00-3.594-1.478h-6.047zm34.6 10.95h-2.688l-5.51-9.406h-6.583v9.406h-2.351V20.558h9.405a7.112 7.112 0 017.055 7.054 6.732 6.732 0 01-1.445 4.266 6.913 6.913 0 01-3.628 2.486zm-7.727-21.297h-7.054v9.675h7.054a4.477 4.477 0 003.326-1.411 4.872 4.872 0 001.377-3.427 4.798 4.798 0 00-1.377-3.426 4.48 4.48 0 00-3.326-1.411zm30.535 18.173a12.328 12.328 0 01-17.266 0 11.887 11.887 0 01-3.527-8.633 12.16 12.16 0 1124.32 0 11.885 11.885 0 01-3.527 8.633zm-15.62-1.612a9.977 9.977 0 0013.974 0 9.6 9.6 0 002.821-7.021 9.56 9.56 0 00-2.821-6.987 9.894 9.894 0 00-13.974 0 9.562 9.562 0 00-2.822 6.987 9.602 9.602 0 002.822 7.02zm23.177-18.778h9.07a10.26 10.26 0 017.927 3.426 11.698 11.698 0 013.158 8.33 11.816 11.816 0 01-3.158 8.366 10.305 10.305 0 01-7.927 3.392h-9.07zm2.351 21.297h6.72a8.069 8.069 0 006.314-2.755 9.834 9.834 0 002.486-6.785 9.835 9.835 0 00-2.486-6.785 8.07 8.07 0 00-6.315-2.755h-6.719zm21.499-5.777v-15.52h2.351v15.52a5.923 5.923 0 001.697 4.484 7.555 7.555 0 009.372 0 5.926 5.926 0 001.696-4.484v-15.52h2.352v15.52a8.01 8.01 0 01-2.42 6.113 9.87 9.87 0 01-12.63 0 8.01 8.01 0 01-2.418-6.113zm33.491 8.398a11.995 11.995 0 01-12.328-12.161 11.995 11.995 0 0112.328-12.16 11.738 11.738 0 015.945 1.562 11.176 11.176 0 014.233 4.216l-2.083 1.209a8.356 8.356 0 00-3.292-3.426 9.347 9.347 0 00-4.803-1.277 9.538 9.538 0 00-7.189 2.855 9.733 9.733 0 00-2.788 7.02 9.733 9.733 0 002.788 7.022 9.536 9.536 0 007.189 2.855 9.342 9.342 0 004.803-1.277 8.35 8.35 0 003.292-3.426l2.083 1.176a10.747 10.747 0 01-4.199 4.232 11.82 11.82 0 01-5.98 1.58zm11.524-23.918h16.795v2.217h-7.222v21.297h-2.351V22.775h-7.222zm20.154 23.514V20.558h2.351v23.514zm27.176-3.124a12.328 12.328 0 01-17.266 0 11.887 11.887 0 01-3.527-8.633 12.16 12.16 0 1124.32 0 11.885 11.885 0 01-3.527 8.633zm-15.62-1.612a9.977 9.977 0 0013.974 0 9.6 9.6 0 002.821-7.021 9.56 9.56 0 00-2.821-6.987 9.894 9.894 0 00-13.974 0 9.562 9.562 0 00-2.822 6.987 9.602 9.602 0 002.822 7.02zm38.293.37V20.558h2.352v23.514h-2.016l-13.1-19.147v19.147h-2.352V20.558h2.016z"/><g clip-path="url(#clip-path)"><path class="cls-4" transform="rotate(-53.238 6.588 15.464)" d="M-31.561 15.268h76.298v.392h-76.298z"/><path class="cls-5" transform="rotate(-53.343 6.815 15.632)" d="M-31.335 15.374h76.298v.516h-76.298z"/><path class="cls-6" transform="rotate(-53.373 7.09 15.838)" d="M-31.059 15.58h76.298v.516h-76.298z"/><path class="cls-7" transform="rotate(-53.308 7.367 16.044)" d="M-30.782 15.785h76.298v.517h-76.298z"/><path class="cls-8" transform="rotate(-53.268 7.643 16.25)" d="M-30.506 15.991h76.298v.517h-76.298z"/><path class="cls-9" transform="rotate(-53.334 7.919 16.455)" d="M-30.23 16.197h76.298v.516H-30.23z"/><path class="cls-10" transform="rotate(-53.334 8.195 16.661)" d="M-29.954 16.403h76.298v.516h-76.298z"/><path class="cls-11" transform="rotate(-53.305 8.471 16.867)" d="M-29.678 16.609h76.299v.516h-76.299z"/><path class="cls-12" transform="rotate(-53.34 8.747 17.072)" d="M-29.402 16.814h76.298v.517h-76.298z"/><path class="cls-13" transform="rotate(-53.333 9.024 17.278)" d="M-29.126 17.02h76.298v.516h-76.298z"/><path class="cls-14" transform="rotate(-53.333 9.3 17.484)" d="M-28.85 17.226h76.298v.516H-28.85z"/><path class="cls-15" transform="rotate(-53.279 9.575 17.69)" d="M-28.574 17.431h76.298v.516h-76.298z"/><path class="cls-16" transform="rotate(-53.307 9.852 17.895)" d="M-28.297 17.637h76.298v.517h-76.298z"/><path class="cls-17" transform="rotate(-53.323 10.128 18.101)" d="M-28.021 17.843h76.298v.517h-76.298z"/><path class="cls-18" transform="rotate(-53.279 10.404 18.307)" d="M-27.745 18.049h76.298v.516h-76.298z"/><path class="cls-18" transform="rotate(-53.289 10.68 18.512)" d="M-27.469 18.254h76.298v.516h-76.298z"/><path class="cls-19" transform="rotate(-53.278 10.956 18.718)" d="M-27.193 18.46h76.298v.516h-76.298z"/><path class="cls-20" transform="rotate(-53.373 11.232 18.924)" d="M-26.917 18.665h76.298v.517h-76.298z"/><path class="cls-21" transform="rotate(-53.278 11.508 19.13)" d="M-26.641 18.871h76.298v.517h-76.298z"/><path class="cls-22" transform="rotate(-53.279 11.785 19.335)" d="M-26.364 19.077h76.298v.517h-76.298z"/><path class="cls-23" transform="rotate(-53.334 12.06 19.541)" d="M-26.089 19.283h76.298v.516h-76.298z"/><path class="cls-23" transform="rotate(-53.361 12.337 19.747)" d="M-25.813 19.488h76.298v.516h-76.298z"/><path class="cls-24" transform="rotate(-53.316 12.613 19.952)" d="M-25.536 19.694h76.298v.517h-76.298z"/><path class="cls-25" transform="rotate(-53.278 12.889 20.158)" d="M-25.26 19.9h76.298v.517H-25.26z"/><path transform="rotate(-53.322 13.165 20.364)" fill="#f40014" d="M-24.984 20.106h76.298v.516h-76.298z"/><path class="cls-27" transform="rotate(-53.323 13.44 20.57)" d="M-24.708 20.311H51.59v.516h-76.298z"/><path class="cls-27" transform="rotate(-53.305 13.717 20.775)" d="M-24.432 20.517h76.298v.516h-76.298z"/><path transform="rotate(-53.279 13.993 20.981)" fill="#f20014" d="M-24.156 20.723h76.298v.517h-76.298z"/><path transform="rotate(-53.334 14.27 21.187)" fill="#f10014" d="M-23.88 20.929h76.298v.516H-23.88z"/><path transform="rotate(-53.333 14.545 21.392)" fill="#f00014" d="M-23.604 21.134h76.298v.516h-76.298z"/><path transform="rotate(-53.278 14.822 21.598)" fill="#ef0014" d="M-23.328 21.34H52.97v.516h-76.298z"/><path class="cls-32" transform="rotate(-53.319 15.098 21.804)" d="M-23.051 21.545h76.298v.517h-76.298z"/><path class="cls-32" transform="rotate(-53.333 15.374 22.01)" d="M-22.775 21.751h76.298v.517h-76.298z"/><path transform="rotate(-53.269 15.65 22.215)" fill="#ed0014" d="M-22.499 21.957h76.298v.516h-76.298z"/><path transform="rotate(-53.269 15.926 22.42)" fill="#ec0014" d="M-22.223 22.163h76.298v.517h-76.298z"/><path transform="rotate(-53.328 16.202 22.627)" fill="#eb0014" d="M-21.947 22.368h76.298v.517h-76.298z"/><path transform="rotate(-53.362 16.478 22.832)" fill="#ea0013" d="M-21.671 22.574h76.298v.517h-76.298z"/><path class="cls-37" transform="rotate(-53.278 16.754 23.038)" d="M-21.395 22.78h76.299v.516h-76.299z"/><path class="cls-37" transform="rotate(-53.278 17.03 23.244)" d="M-21.118 22.985H55.18v.516h-76.298z"/><path transform="rotate(-53.334 17.306 23.45)" fill="#e80013" d="M-20.843 23.191h76.298v.516h-76.298z"/><path transform="rotate(-53.373 17.583 23.655)" fill="#e70013" d="M-20.567 23.397h76.298v.516h-76.298z"/><path transform="rotate(-53.319 17.859 23.86)" fill="#e60013" d="M-20.29 23.603h76.298v.517H-20.29z"/><path class="cls-41" transform="rotate(-53.29 18.135 24.067)" d="M-20.014 23.808h76.298v.516h-76.298z"/><path class="cls-41" transform="rotate(-53.333 18.411 24.272)" d="M-19.738 24.014H56.56v.516h-76.298z"/><path transform="rotate(-53.322 18.687 24.478)" fill="#e30013" d="M-19.462 24.22h76.298v.516h-76.298z"/><path transform="rotate(-53.308 18.963 24.684)" fill="#e20013" d="M-19.186 24.425h76.298v.517h-76.298z"/><path transform="rotate(-53.278 19.24 24.89)" fill="#e10013" d="M-18.91 24.631h76.298v.517H-18.91z"/><path transform="rotate(-53.334 19.516 25.095)" fill="#e00013" d="M-18.634 24.837h76.298v.516h-76.298z"/><path transform="rotate(-53.334 19.792 25.3)" fill="#df0013" d="M-18.358 25.043H57.94v.516h-76.298z"/><path transform="rotate(-53.3 20.068 25.507)" fill="#de0012" d="M-18.082 25.248h76.298v.516h-76.298z"/><path transform="rotate(-53.319 20.344 25.712)" fill="#dd0012" d="M-17.805 25.454h76.298v.517h-76.298z"/><path transform="rotate(-53.333 20.62 25.918)" fill="#db0012" d="M-17.529 25.66h76.298v.517h-76.298z"/><path transform="rotate(-53.278 20.896 26.124)" fill="#da0012" d="M-17.253 25.865h76.298v.516h-76.298z"/><path transform="rotate(-53.279 21.172 26.33)" fill="#d90012" d="M-16.977 26.071h76.298v.516h-76.298z"/><path transform="rotate(-53.308 21.448 26.535)" fill="#d80012" d="M-16.701 26.277h76.298v.517h-76.298z"/><path transform="rotate(-53.348 21.724 26.741)" fill="#d70012" d="M-16.425 26.483h76.298V27h-76.298z"/><path transform="rotate(-53.29 22 26.947)" fill="#d60012" d="M-16.149 26.688H60.15v.517h-76.299z"/><path transform="rotate(-53.268 22.277 27.152)" fill="#d50012" d="M-15.872 26.894h76.298v.516h-76.298z"/><path transform="rotate(-53.333 22.552 27.358)" fill="#d40012" d="M-15.597 27.1h76.298v.516h-76.298z"/><path transform="rotate(-53.36 22.829 27.564)" fill="#d20012" d="M-15.32 27.305h76.298v.516H-15.32z"/><path class="cls-58" transform="rotate(-53.319 23.105 27.77)" d="M-15.044 27.511h76.298v.517h-76.298z"/><path class="cls-59" transform="rotate(-53.279 23.381 27.975)" d="M-14.768 27.717H61.53v.517h-76.298z"/><path class="cls-60" transform="rotate(-53.332 23.657 28.18)" d="M-14.492 27.923h76.298v.516h-76.298z"/><path class="cls-61" transform="rotate(-53.344 23.933 28.387)" d="M-14.216 28.129h76.298v.516h-76.298z"/><path class="cls-62" transform="rotate(-53.331 24.21 28.592)" d="M-13.94 28.334h76.298v.517H-13.94z"/><path class="cls-63" transform="rotate(-53.267 24.485 28.798)" d="M-13.664 28.54h76.298v.517h-76.298z"/><path transform="rotate(-53.323 24.761 29.004)" fill="#cb0011" d="M-13.388 28.745H62.91v.516h-76.298z"/><path class="cls-63" transform="rotate(-53.277 25.038 29.21)" d="M-13.112 28.951h76.298v.516h-76.298z"/><path class="cls-62" transform="rotate(-53.32 25.314 29.415)" d="M-12.835 29.157h76.298v.517h-76.298z"/><path class="cls-61" transform="rotate(-53.339 25.59 29.62)" d="M-12.559 29.362h76.298v.517h-76.298z"/><path class="cls-60" transform="rotate(-53.341 25.866 29.827)" d="M-12.283 29.568h76.298v.516h-76.298z"/><path class="cls-59" transform="rotate(-53.301 26.142 30.032)" d="M-12.007 29.774h76.298v.516h-76.298z"/><path class="cls-58" transform="rotate(-53.279 26.418 30.238)" d="M-11.731 29.98h76.298v.517h-76.298z"/><path transform="rotate(-53.318 26.694 30.444)" fill="#d20011" d="M-11.455 30.185h76.298v.517h-76.298z"/><path transform="rotate(-53.361 26.97 30.65)" fill="#d30011" d="M-11.179 30.391h76.298v.517h-76.298z"/><path transform="rotate(-53.269 27.247 30.855)" fill="#d40011" d="M-10.903 30.597h76.298v.516h-76.298z"/><path transform="rotate(-53.288 27.523 31.06)" fill="#d50011" d="M-10.627 30.803h76.298v.516h-76.298z"/><path transform="rotate(-53.33 27.799 31.266)" fill="#d60011" d="M-10.351 31.008h76.298v.516h-76.298z"/><path transform="rotate(-53.363 28.075 31.472)" fill="#d70011" d="M-10.074 31.214h76.298v.516h-76.298z"/><path transform="rotate(-53.277 28.351 31.678)" fill="#d80011" d="M-9.798 31.42h76.299v.517H-9.798z"/><path transform="rotate(-53.279 28.627 31.884)" fill="#d90011" d="M-9.522 31.625h76.298v.516H-9.522z"/><path transform="rotate(-53.332 28.903 32.09)" fill="#da0011" d="M-9.246 31.831h76.298v.516H-9.246z"/><path transform="rotate(-53.334 29.179 32.295)" fill="#db0011" d="M-8.97 32.037h76.298v.516H-8.97z"/><path transform="rotate(-53.339 29.455 32.5)" fill="#dc0011" d="M-8.694 32.242h76.298v.517H-8.694z"/><path transform="rotate(-53.29 29.731 32.706)" fill="#d01" d="M-8.418 32.448H67.88v.517H-8.418z"/><path class="cls-77" transform="rotate(-53.334 30.008 32.912)" d="M-8.142 32.654h76.298v.516H-8.142z"/><path class="cls-77" transform="rotate(-53.269 30.284 33.118)" d="M-7.866 32.86h76.298v.516H-7.866z"/><path transform="rotate(-53.307 30.56 33.323)" fill="#df0011" d="M-7.589 33.065h76.298v.517H-7.589z"/><path transform="rotate(-53.306 30.836 33.53)" fill="#e00011" d="M-7.313 33.271h76.298v.517H-7.313z"/><path transform="rotate(-53.334 31.112 33.735)" fill="#e10011" d="M-7.037 33.477h76.299v.517H-7.037z"/><path transform="rotate(-53.299 31.388 33.94)" fill="#e20011" d="M-6.761 33.683h76.298v.516H-6.761z"/><path transform="rotate(-53.301 31.664 34.146)" fill="#e30011" d="M-6.485 33.888h76.298v.516H-6.485z"/><path transform="rotate(-53.306 31.94 34.352)" fill="#e40011" d="M-6.209 34.094h76.298v.517H-6.209z"/><path transform="rotate(-53.372 32.216 34.558)" fill="#e50011" d="M-5.933 34.3h76.298v.517H-5.933z"/><path transform="rotate(-53.279 32.493 34.764)" fill="#e60011" d="M-5.657 34.505h76.298v.516H-5.657z"/><path transform="rotate(-53.269 32.769 34.97)" fill="#e70011" d="M-5.38 34.711h76.298v.517H-5.38z"/><path transform="rotate(-53.323 33.045 35.175)" fill="#e80011" d="M-5.104 34.917h76.298v.516H-5.104z"/><path transform="rotate(-53.383 33.32 35.38)" fill="#e90011" d="M-4.828 35.123H71.47v.516H-4.828z"/><path transform="rotate(-53.29 33.597 35.586)" fill="#ea0011" d="M-4.552 35.328h76.298v.516H-4.552z"/><path transform="rotate(-53.277 33.873 35.792)" fill="#eb0011" d="M-4.276 35.534h76.298v.516H-4.276z"/><path transform="rotate(-53.334 34.149 35.998)" fill="#ec0011" d="M-4 35.74h76.298v.516H-4z"/><path transform="rotate(-53.332 34.425 36.204)" fill="#ed0011" d="M-3.724 35.945h76.298v.516H-3.724z"/><path transform="rotate(-53.32 34.701 36.41)" fill="#e01" d="M-3.448 36.151H72.85v.517H-3.448z"/><path transform="rotate(-53.265 34.978 36.615)" fill="#ef0011" d="M-3.172 36.357h76.298v.517H-3.172z"/><path transform="rotate(-53.342 35.254 36.82)" fill="#f00011" d="M-2.895 36.563h76.298v.516H-2.895z"/><path transform="rotate(-53.29 35.53 37.026)" fill="#f10011" d="M-2.62 36.768h76.298v.516H-2.62z"/><path class="cls-97" transform="rotate(-53.318 35.806 37.232)" d="M-2.343 36.974h76.298v.517H-2.343z"/><path class="cls-97" transform="rotate(-53.307 36.082 37.438)" d="M-2.067 37.179h76.298v.517H-2.067z"/><path transform="rotate(-53.323 36.358 37.644)" fill="#f30011" d="M-1.791 37.385h76.298v.517H-1.791z"/><path transform="rotate(-53.279 36.634 37.85)" fill="#f40011" d="M-1.515 37.591h76.298v.516H-1.515z"/><path transform="rotate(-53.277 36.91 38.055)" fill="#f50011" d="M-1.239 37.797h76.298v.516H-1.239z"/><path transform="rotate(-53.339 37.186 38.26)" fill="#f60011" d="M-.963 38.002h76.298v.517H-.963z"/><path transform="rotate(-53.334 37.463 38.466)" fill="#f70011" d="M-.687 38.208h76.299v.517H-.687z"/><path class="cls-103" transform="rotate(-53.277 37.739 38.672)" d="M-.411 38.414h76.298v.516H-.411z"/><path transform="rotate(-53.279 38.015 38.878)" fill="#f90011" d="M-.134 38.619h76.298v.517H-.134z"/><path class="cls-105" transform="rotate(-53.332 38.29 39.083)" d="M.142 38.825H76.44v.516H.142z"/><path transform="rotate(-53.363 38.567 39.29)" fill="#fb0011" d="M.418 39.031h76.298v.517H.418z"/><path class="cls-107" transform="rotate(-53.269 38.843 39.495)" d="M.694 39.237h76.298v.517H.694z"/><path transform="rotate(-53.288 39.12 39.7)" fill="#fd0011" d="M.97 39.442h76.298v.516H.97z"/><path transform="rotate(-53.323 39.395 39.906)" fill="#f01" d="M1.246 39.648h76.298v.516H1.246z"/><path class="cls-107" transform="rotate(-53.372 39.671 40.112)" d="M1.522 39.854H77.82v.516H1.522z"/><path class="cls-105" transform="rotate(-53.306 39.947 40.318)" d="M1.798 40.059h76.298v.517H1.798z"/><path class="cls-103" transform="rotate(-53.279 40.224 40.523)" d="M2.074 40.265h76.298v.517H2.074z"/><path transform="rotate(-53.334 40.5 40.73)" fill="#f60010" d="M2.351 40.471h76.298v.516H2.351z"/><path transform="rotate(-53.277 40.776 40.935)" fill="#f50010" d="M2.626 40.677h76.298v.516H2.626z"/><path transform="rotate(-53.316 41.052 41.14)" fill="#f30010" d="M2.903 40.882h76.298v.517H2.903z"/><path transform="rotate(-53.32 41.328 41.346)" fill="#f10010" d="M3.179 41.088h76.298v.517H3.179z"/><path transform="rotate(-53.321 41.604 41.552)" fill="#ef0010" d="M3.455 41.294h76.298v.516H3.455z"/><path transform="rotate(-53.269 41.88 41.758)" fill="#ed0010" d="M3.731 41.499h76.298v.516H3.731z"/><path transform="rotate(-53.277 42.156 41.963)" fill="#eb0010" d="M4.007 41.705h76.298v.516H4.007z"/><path transform="rotate(-53.32 42.432 42.17)" fill="#e90010" d="M4.283 41.911h76.298v.517H4.283z"/><path transform="rotate(-53.334 42.709 42.375)" fill="#e7000f" d="M4.559 42.117h76.298v.516H4.559z"/><path transform="rotate(-53.301 42.985 42.58)" fill="#e5000f" d="M4.835 42.322h76.298v.516H4.835z"/><path transform="rotate(-53.279 43.26 42.786)" fill="#e3000f" d="M5.112 42.528H81.41v.516H5.112z"/><path transform="rotate(-53.334 43.537 42.992)" fill="#e1000f" d="M5.388 42.734h76.298v.516H5.388z"/><path transform="rotate(-53.372 43.813 43.198)" fill="#df000f" d="M5.664 42.939h76.298v.517H5.664z"/><path transform="rotate(-53.279 44.089 43.403)" fill="#dd000f" d="M5.94 43.145h76.298v.516H5.94z"/><path transform="rotate(-53.269 44.365 43.61)" fill="#db000f" d="M6.216 43.351h76.298v.517H6.216z"/><path transform="rotate(-53.321 44.641 43.815)" fill="#da000f" d="M6.492 43.557H82.79v.516H6.492z"/><path transform="rotate(-53.363 44.917 44.02)" fill="#d8000e" d="M6.768 43.762h76.298v.516H6.768z"/><path transform="rotate(-53.309 45.193 44.226)" fill="#d6000e" d="M7.044 43.968h76.298v.517H7.044z"/><path transform="rotate(-53.277 45.47 44.432)" fill="#d4000e" d="M7.32 44.174h76.298v.517H7.32z"/><path transform="rotate(-53.334 45.745 44.637)" fill="#d2000e" d="M7.596 44.38h76.298v.516H7.596z"/><path transform="rotate(-53.279 46.022 44.843)" fill="#d0000e" d="M7.872 44.585H84.17v.516H7.872z"/><path transform="rotate(-53.32 46.298 45.049)" fill="#ce000e" d="M8.149 44.791h76.298v.517H8.149z"/><path transform="rotate(-53.301 46.574 45.255)" fill="#cc000e" d="M8.425 44.997h76.298v.517H8.425z"/><path transform="rotate(-53.334 46.85 45.46)" fill="#ca000d" d="M8.701 45.202h76.298v.516H8.701z"/><path class="cls-134" transform="rotate(-53.265 47.126 45.666)" d="M8.977 45.408h76.298v.516H8.977z"/><path class="cls-135" transform="rotate(-53.269 47.402 45.872)" d="M9.253 45.614h76.298v.517H9.253z"/><path class="cls-136" transform="rotate(-53.307 47.678 46.078)" d="M9.529 45.819h76.298v.517H9.529z"/><path transform="rotate(-53.334 47.955 46.283)" fill="#c3000d" d="M9.805 46.025h76.298v.516H9.805z"/><path class="cls-136" transform="rotate(-53.279 48.23 46.49)" d="M10.081 46.231h76.298v.516H10.081z"/><path class="cls-136" transform="rotate(-53.299 48.507 46.695)" d="M10.358 46.437h76.298v.516H10.358z"/><path class="cls-138" transform="rotate(-53.374 48.783 46.9)" d="M10.634 46.642h76.299v.517H10.634z"/><path class="cls-138" transform="rotate(-53.36 49.059 47.106)" d="M10.91 46.848h76.298v.517H10.91z"/><path class="cls-135" transform="rotate(-53.277 49.335 47.312)" d="M11.186 47.054h76.298v.517H11.186z"/><path class="cls-135" transform="rotate(-53.279 49.611 47.518)" d="M11.462 47.259H87.76v.516H11.462z"/><path class="cls-135" transform="rotate(-53.323 49.887 47.723)" d="M11.738 47.465h76.298v.516H11.738z"/><path class="cls-139" transform="rotate(-53.349 50.163 47.93)" d="M12.014 47.671h76.298v.516H12.014z"/><path class="cls-139" transform="rotate(-53.328 50.44 48.135)" d="M12.29 47.876h76.298v.517H12.29z"/><path class="cls-134" transform="rotate(-53.269 50.716 48.34)" d="M12.567 48.082h76.298v.516H12.567z"/><path class="cls-134" transform="rotate(-53.321 50.992 48.546)" d="M12.843 48.288h76.298v.516H12.843z"/><path class="cls-140" transform="rotate(-53.279 51.268 48.752)" d="M13.119 48.494h76.298v.516H13.119z"/><path class="cls-140" transform="rotate(-53.318 51.544 48.958)" d="M13.395 48.699h76.298v.517H13.395z"/><path class="cls-141" transform="rotate(-53.279 51.82 49.163)" d="M13.671 48.905h76.298v.517H13.671z"/><path class="cls-141" transform="rotate(-53.334 52.096 49.37)" d="M13.947 49.111h76.298v.516H13.947z"/><path class="cls-142" transform="rotate(-53.299 52.372 49.575)" d="M14.223 49.317h76.298v.516H14.223z"/><path class="cls-142" transform="rotate(-53.29 52.648 49.78)" d="M14.499 49.522h76.298v.516H14.499z"/><path class="cls-143" transform="rotate(-53.372 52.924 49.986)" d="M14.775 49.728h76.298v.517H14.775z"/><path class="cls-143" transform="rotate(-53.323 53.2 50.192)" d="M15.051 49.934h76.298v.516H15.051z"/><path class="cls-144" transform="rotate(-53.269 53.477 50.398)" d="M15.328 50.139h76.298v.516H15.328z"/><path class="cls-144" transform="rotate(-53.279 53.753 50.603)" d="M15.604 50.345h76.298v.516H15.604z"/><path class="cls-145" transform="rotate(-53.372 54.029 50.81)" d="M15.88 50.551h76.299v.517H15.88z"/><path class="cls-145" transform="rotate(-53.381 54.305 51.015)" d="M16.156 50.757h76.298v.516H16.156z"/><path class="cls-146" transform="rotate(-53.301 54.581 51.22)" d="M16.432 50.962H92.73v.516H16.432z"/><path class="cls-146" transform="rotate(-53.277 54.857 51.426)" d="M16.708 51.168h76.298v.517H16.708z"/><path class="cls-146" transform="rotate(-53.334 55.133 51.632)" d="M16.984 51.374h76.298v.516H16.984z"/><path class="cls-147" transform="rotate(-53.372 55.41 51.838)" d="M17.26 51.579h76.298v.516H17.26z"/><path class="cls-147" transform="rotate(-53.309 55.686 52.043)" d="M17.536 51.785h76.298v.517H17.536z"/><path class="cls-148" transform="rotate(-53.29 55.962 52.249)" d="M17.813 51.991h76.298v.516H17.813z"/><path class="cls-148" transform="rotate(-53.33 56.238 52.455)" d="M18.089 52.197h76.298v.516H18.089z"/><path class="cls-149" transform="rotate(-53.29 56.514 52.66)" d="M18.365 52.402h76.298v.516H18.365z"/><path class="cls-149" transform="rotate(-53.318 56.79 52.866)" d="M18.641 52.608h76.298v.517H18.641z"/><path class="cls-150" transform="rotate(-53.279 57.066 53.072)" d="M18.917 52.814h76.298v.517H18.917z"/><path class="cls-150" transform="rotate(-53.334 57.342 53.277)" d="M19.193 53.019h76.298v.516H19.193z"/><path transform="rotate(-53.279 57.618 53.483)" fill="#d4010d" d="M19.469 53.225h76.298v.516H19.469z"/><path transform="rotate(-53.339 57.894 53.689)" fill="#d4020e" d="M19.745 53.431h76.298v.517H19.745z"/><path transform="rotate(-53.385 58.17 53.895)" fill="#d5020e" d="M20.021 53.636h76.298v.517H20.021z"/><path transform="rotate(-53.334 58.447 54.1)" fill="#d6020e" d="M20.297 53.842h76.298v.516H20.297z"/><path transform="rotate(-53.277 58.723 54.306)" fill="#d7020e" d="M20.574 54.048h76.298v.516H20.574z"/><path transform="rotate(-53.269 58.999 54.512)" fill="#d8020e" d="M20.85 54.253h76.298v.517H20.85z"/><path transform="rotate(-53.347 59.275 54.718)" fill="#d9020e" d="M21.126 54.459h76.299v.516H21.126z"/><path fill-rule="evenodd" fill="#d9020e" d="M82.136 24.177l.415.308-45.585 61.184-.414-.308 45.584-61.184z"/><path transform="rotate(-53.29 59.828 55.13)" fill="#da020e" d="M21.678 54.871h76.298v.516H21.678z"/><path transform="rotate(-53.301 60.103 55.335)" fill="#db020e" d="M21.954 55.076h76.298v.516H21.954z"/><path transform="rotate(-53.334 60.38 55.54)" fill="#dc020e" d="M22.23 55.282h76.298v.516H22.23z"/><path transform="rotate(-53.372 60.655 55.746)" fill="#dd020e" d="M22.506 55.488h76.298v.516H22.506z"/><path class="cls-163" transform="rotate(-53.279 60.932 55.952)" d="M22.782 55.694H99.08v.517H22.782z"/><path class="cls-163" transform="rotate(-53.279 61.208 56.158)" d="M23.059 55.899h76.298v.516H23.059z"/><path transform="rotate(-53.323 61.484 56.363)" fill="#df020e" d="M23.335 56.105h76.298v.516H23.335z"/><path transform="rotate(-53.288 61.76 56.569)" fill="#e0030e" d="M23.611 56.311h76.298v.516H23.611z"/><path transform="rotate(-53.331 62.036 56.775)" fill="#e1030e" d="M23.887 56.516h76.298v.517H23.887z"/><path transform="rotate(-53.267 62.312 56.98)" fill="#e2030e" d="M24.163 56.722h76.298v.517H24.163z"/><path class="cls-168" transform="rotate(-53.332 62.588 57.186)" d="M24.439 56.928h76.298v.516H24.439z"/><path class="cls-168" transform="rotate(-53.279 62.864 57.392)" d="M24.715 57.134h76.298v.516H24.715z"/><path transform="rotate(-53.318 63.14 57.597)" fill="#e4030e" d="M24.991 57.339h76.298v.517H24.991z"/><path transform="rotate(-53.36 63.417 57.803)" fill="#e5030e" d="M25.267 57.545h76.298v.517H25.267z"/><path class="cls-168" transform="rotate(-53.355 63.693 58.009)" d="M25.544 57.751h76.298v.516H25.544z"/><path transform="rotate(-53.29 63.97 58.215)" fill="#e2030d" d="M25.82 57.956h76.298v.516H25.82z"/><path transform="rotate(-53.277 64.245 58.42)" fill="#e1030d" d="M26.096 58.162h76.298v.516H26.096z"/><path transform="rotate(-53.361 64.521 58.626)" fill="#e0030d" d="M26.372 58.368h76.298v.517H26.372z"/><path transform="rotate(-53.361 64.797 58.832)" fill="#de030d" d="M26.648 58.573h76.298v.517H26.648z"/><path transform="rotate(-53.279 65.073 59.037)" fill="#dd030d" d="M26.924 58.779h76.298v.516H26.924z"/><path transform="rotate(-53.279 65.35 59.243)" fill="#dc030c" d="M27.2 58.985h76.298v.516H27.2z"/><path transform="rotate(-53.342 65.625 59.449)" fill="#da030c" d="M27.476 59.191h76.298v.516H27.476z"/><path transform="rotate(-53.374 65.901 59.655)" fill="#d9030c" d="M27.752 59.396h76.298v.516H27.752z"/><path transform="rotate(-53.277 66.178 59.86)" fill="#d8030c" d="M28.028 59.602h76.298v.517H28.028z"/><path transform="rotate(-53.277 66.454 60.066)" fill="#d6020b" d="M28.305 59.808h76.298v.517H28.305z"/><path transform="rotate(-53.334 66.73 60.272)" fill="#d5020b" d="M28.581 60.014h76.298v.516H28.581z"/><path transform="rotate(-53.318 67.006 60.477)" fill="#d4020b" d="M28.857 60.219h76.298v.517H28.857z"/><path transform="rotate(-53.307 67.282 60.683)" fill="#d2020b" d="M29.133 60.425h76.298v.517H29.133z"/><path transform="rotate(-53.29 67.558 60.889)" fill="#d1020b" d="M29.409 60.631h76.298v.517H29.409z"/><path transform="rotate(-53.323 67.834 61.095)" fill="#d0020a" d="M29.685 60.836h76.298v.516H29.685z"/><path transform="rotate(-53.267 68.11 61.3)" fill="#cf020a" d="M29.961 61.042h76.298v.516H29.961z"/><path transform="rotate(-53.306 68.386 61.506)" fill="#cd020a" d="M30.237 61.248h76.298v.517H30.237z"/><path transform="rotate(-53.372 68.663 61.712)" fill="#cc020a" d="M30.513 61.453h76.298v.517H30.513z"/><path transform="rotate(-53.334 68.939 61.917)" fill="#cb0209" d="M30.79 61.659h76.298v.516H30.79z"/><path transform="rotate(-53.279 69.215 62.123)" fill="#c90209" d="M31.066 61.865h76.298v.516H31.066z"/><path transform="rotate(-53.299 69.49 62.329)" fill="#c80209" d="M31.342 62.071h76.298v.516H31.342z"/><path transform="rotate(-53.374 69.767 62.534)" fill="#c70209" d="M31.618 62.276h76.299v.517H31.618z"/><path transform="rotate(-53.332 70.043 62.74)" fill="#c50208" d="M31.894 62.482h76.298v.516H31.894z"/><path transform="rotate(-53.269 70.32 62.946)" fill="#c40208" d="M32.17 62.688h76.298v.516H32.17z"/><path transform="rotate(-53.269 70.595 63.152)" fill="#c30208" d="M32.446 62.893h76.298v.517H32.446z"/><path transform="rotate(-53.334 70.871 63.357)" fill="#c10208" d="M32.722 63.099h76.298v.516H32.722z"/><path transform="rotate(-53.372 71.148 63.563)" fill="#c00208" d="M32.999 63.305h76.298v.517H32.999z"/><path transform="rotate(-53.301 71.423 63.768)" fill="#bf0207" d="M33.274 63.511h76.298v.516H33.274z"/><path transform="rotate(-53.279 71.7 63.974)" fill="#be0207" d="M33.551 63.716h76.298v.516H33.551z"/><path transform="rotate(-53.332 71.976 64.18)" fill="#bc0107" d="M33.827 63.922h76.298v.516H33.827z"/><path transform="rotate(-53.32 72.252 64.386)" fill="#bb0107" d="M34.103 64.128h76.298v.517H34.103z"/><path transform="rotate(-53.304 72.528 64.592)" fill="#ba0106" d="M34.379 64.333h76.298v.517H34.379z"/><path transform="rotate(-53.269 72.804 64.797)" fill="#b80106" d="M34.655 64.539h76.298v.517H34.655z"/><path transform="rotate(-53.323 73.08 65.003)" fill="#b70106" d="M34.931 64.745h76.298v.516H34.931z"/><path transform="rotate(-53.29 73.356 65.209)" fill="#b60106" d="M35.207 64.951h76.298v.516H35.207z"/><path transform="rotate(-53.309 73.633 65.414)" fill="#b40105" d="M35.483 65.156h76.298v.517H35.483z"/><path transform="rotate(-53.361 73.909 65.62)" fill="#b30105" d="M35.759 65.362h76.298v.517H35.759z"/><path transform="rotate(-53.334 74.185 65.826)" fill="#b20105" d="M36.036 65.568h76.298v.516H36.036z"/><path transform="rotate(-53.279 74.46 66.032)" fill="#b00105" d="M36.312 65.773h76.298v.516H36.312z"/><path transform="rotate(-53.279 74.737 66.237)" fill="#af0105" d="M36.588 65.979h76.298v.517H36.588z"/><path transform="rotate(-53.372 75.013 66.443)" fill="#ae0104" d="M36.864 66.185h76.298v.517H36.864z"/><path transform="rotate(-53.334 75.29 66.649)" fill="#ad0104" d="M37.14 66.391h76.298v.516H37.14z"/><path transform="rotate(-53.265 75.565 66.854)" fill="#ab0104" d="M37.416 66.596h76.298v.516H37.416z"/><path transform="rotate(-53.277 75.841 67.06)" fill="#aa0104" d="M37.692 66.802h76.298v.516H37.692z"/><path transform="rotate(-53.323 76.117 67.266)" fill="#a90103" d="M37.968 67.008h76.298v.516H37.968z"/><path transform="rotate(-53.361 76.394 67.472)" fill="#a70103" d="M38.245 67.213h76.298v.517H38.245z"/><path transform="rotate(-53.279 76.67 67.677)" fill="#a60103" d="M38.521 67.419h76.298v.517H38.521z"/><path transform="rotate(-53.29 76.946 67.883)" fill="#a50103" d="M38.797 67.625h76.298v.516H38.797z"/><path class="cls-4" transform="rotate(-53.334 77.222 68.089)" d="M39.073 67.831h76.298v.516H39.073z"/><path class="cls-5" transform="rotate(-53.306 77.498 68.294)" d="M39.349 68.036h76.299v.516H39.349z"/><path class="cls-6" transform="rotate(-53.318 77.774 68.5)" d="M39.625 68.242h76.298v.517H39.625z"/><path class="cls-7" transform="rotate(-53.279 78.05 68.706)" d="M39.901 68.448h76.298v.517H39.901z"/><path class="cls-8" transform="rotate(-53.334 78.326 68.912)" d="M40.177 68.654h76.298v.516H40.177z"/><path class="cls-9" transform="rotate(-53.269 78.602 69.117)" d="M40.453 68.859h76.298v.516H40.453z"/><path class="cls-10" transform="rotate(-53.328 78.88 69.323)" d="M40.729 69.065h76.298v.517H40.729z"/><path class="cls-11" transform="rotate(-53.323 79.155 69.529)" d="M41.005 69.27h76.299v.516H41.005z"/><path class="cls-12" transform="rotate(-53.321 79.43 69.734)" d="M41.282 69.476h76.298v.516H41.282z"/><path class="cls-13" transform="rotate(-53.277 79.707 69.94)" d="M41.558 69.682h76.298v.516H41.558z"/><path class="cls-14" transform="rotate(-53.279 79.983 70.146)" d="M41.834 69.888h76.298v.516H41.834z"/><path class="cls-15" transform="rotate(-53.372 80.26 70.352)" d="M42.11 70.093h76.298v.517H42.11z"/><path class="cls-16" transform="rotate(-53.334 80.535 70.557)" d="M42.386 70.299h76.298v.516H42.386z"/><path class="cls-17" transform="rotate(-53.301 80.811 70.763)" d="M42.662 70.505h76.298v.516H42.662z"/><path class="cls-18" transform="rotate(-53.29 81.088 70.969)" d="M42.938 70.71h76.298v.516H42.938z"/><path class="cls-18" transform="rotate(-53.372 81.363 71.174)" d="M43.214 70.916h76.298v.517H43.214z"/><path class="cls-19" transform="rotate(-53.349 81.64 71.38)" d="M43.491 71.122h76.298v.516H43.491z"/><path class="cls-20" transform="rotate(-53.269 81.916 71.586)" d="M43.767 71.327h76.298v.517H43.767z"/><path class="cls-21" transform="rotate(-53.279 82.192 71.792)" d="M44.043 71.533h76.298v.516H44.043z"/><path class="cls-22" transform="rotate(-53.334 82.468 71.997)" d="M44.319 71.739h76.298v.516H44.319z"/><path class="cls-23" transform="rotate(-53.314 82.744 72.203)" d="M44.595 71.945h76.298v.516H44.595z"/><path class="cls-23" transform="rotate(-53.341 83.02 72.409)" d="M44.871 72.15h76.298v.517H44.871z"/><path class="cls-24" transform="rotate(-53.277 83.296 72.614)" d="M45.147 72.356h76.298v.516H45.147z"/><path class="cls-25" transform="rotate(-53.334 83.572 72.82)" d="M45.423 72.562h76.298v.516H45.423z"/><path fill-rule="evenodd" fill="#f40014" d="M106.434 42.279l-.101-.075-45.584 61.184.1.076 45.585-61.185z"/></g><path d="M52.945 7.992c23.84 5.522 28.848 25.166 29.257 26.89-3.11-14.63-14.628-25.53-29.257-28.643zM37.028 80.575C13.188 75.053 8.18 55.41 7.771 53.685c3.11 14.63 14.628 25.53 29.257 28.644z" fill-rule="evenodd" fill="#ebebeb"/><path class="cls-2" d="M120.175 66.27h5.365v.552a4.513 4.513 0 01-1.426 3.372 5.321 5.321 0 01-3.816 1.364 5.548 5.548 0 112.728-10.376 5.075 5.075 0 011.916 1.916l-.95.551a3.812 3.812 0 00-1.502-1.563 4.264 4.264 0 00-2.192-.583 4.353 4.353 0 00-3.28 1.303 4.67 4.67 0 000 6.407 4.918 4.918 0 006.177.398 3.515 3.515 0 001.241-2.33h-4.26zm17.288 5.104h-1.134l-.996-2.636h-5.088l-.996 2.636h-1.135l4.123-10.729h1.104zm-4.674-9.396l-2.161 5.748h4.322zm16.722-1.333h1.334v10.729h-1.073V62.27l-3.755 6.284h-.153l-3.756-6.284v9.104h-1.072V60.645h1.333l3.571 5.977zm7.051 5.825v3.892h5.21v1.012h-6.283V60.645h6.207v1.012h-5.134v3.8h4.751v1.012zm16.445 5.088a4.45 4.45 0 01-2.521-.698 3.636 3.636 0 01-1.464-1.923l.92-.537a2.769 2.769 0 001.08 1.564 3.407 3.407 0 002 .552 2.962 2.962 0 001.855-.521 1.687 1.687 0 00.674-1.41 1.452 1.452 0 00-.613-1.273 7.803 7.803 0 00-2.023-.889 12.156 12.156 0 01-2.207-.888 2.345 2.345 0 01-1.226-2.13 2.629 2.629 0 01.95-2.147 3.489 3.489 0 012.345-.797 3.72 3.72 0 012.146.637 3.886 3.886 0 011.395 1.678l-.904.506a2.645 2.645 0 00-2.637-1.779 2.468 2.468 0 00-1.617.499 1.662 1.662 0 00-.605 1.356 1.355 1.355 0 00.551 1.196 7.325 7.325 0 001.825.812l.827.291a7.744 7.744 0 01.736.276 3.78 3.78 0 01.72.337 2.728 2.728 0 011.027.904 2.551 2.551 0 01.384 1.38 2.708 2.708 0 01-.997 2.192 4.017 4.017 0 01-2.62.812zm6.346-10.913h7.663v1.012h-3.295v9.717h-1.074v-9.717h-3.294zm11.237 7.081v-7.08h1.072v7.08a2.703 2.703 0 00.775 2.046 3.447 3.447 0 004.275 0 2.703 2.703 0 00.774-2.046v-7.08h1.074v7.08a3.656 3.656 0 01-1.104 2.79 4.504 4.504 0 01-5.763 0 3.656 3.656 0 01-1.104-2.79zm12.46-7.081h4.137a4.682 4.682 0 013.618 1.563 5.338 5.338 0 011.44 3.802 5.392 5.392 0 01-1.44 3.816 4.702 4.702 0 01-3.618 1.548h-4.138zm1.072 9.717h3.065a3.68 3.68 0 002.882-1.257 4.792 4.792 0 000-6.191 3.683 3.683 0 00-2.881-1.257h-3.066zm12.154 1.012V60.645h1.073v10.729zm14.593-1.425a5.625 5.625 0 01-7.878 0 5.423 5.423 0 01-1.61-3.94 5.548 5.548 0 1111.097 0 5.421 5.421 0 01-1.61 3.94zm-7.127-.736a4.552 4.552 0 006.376 0 4.61 4.61 0 000-6.391 4.513 4.513 0 00-6.376 0 4.61 4.61 0 000 6.39z"/></svg>