<svg id="Слой_1" data-name="Слой 1" xmlns="http://www.w3.org/2000/svg" xmlns:xlink="http://www.w3.org/1999/xlink" viewBox="0 0 422.33333 88.14471"><defs><style>.cls-1{fill:none;clip-rule:evenodd;}.cls-2,.cls-220{fill:#ebebeb;}.cls-3{clip-path:url(#clip-path);}.cls-4{fill:#a30103;}.cls-5{fill:#a20002;}.cls-6{fill:#a10002;}.cls-7{fill:#9f0002;}.cls-8{fill:#9e0002;}.cls-9{fill:#9d0001;}.cls-10{fill:#9c0001;}.cls-11{fill:#9a0001;}.cls-12{fill:#990001;}.cls-13{fill:#980000;}.cls-14{fill:#960000;}.cls-15{fill:#950000;}.cls-16{fill:#ff0015;}.cls-17{fill:#fd0015;}.cls-18{fill:#fc0015;}.cls-19{fill:#fb0015;}.cls-20{fill:#fa0015;}.cls-21{fill:#f90015;}.cls-22{fill:#f80015;}.cls-23{fill:#f70014;}.cls-24{fill:#f60014;}.cls-25{fill:#f50014;}.cls-219,.cls-26{fill:#f40014;}.cls-27{fill:#f30014;}.cls-28{fill:#f20014;}.cls-29{fill:#f10014;}.cls-30{fill:#f00014;}.cls-31{fill:#ef0014;}.cls-32{fill:#ee0014;}.cls-33{fill:#ed0014;}.cls-34{fill:#ec0014;}.cls-35{fill:#eb0014;}.cls-36{fill:#ea0013;}.cls-37{fill:#e90013;}.cls-38{fill:#e80013;}.cls-39{fill:#e70013;}.cls-40{fill:#e60013;}.cls-41{fill:#e50013;}.cls-42{fill:#e30013;}.cls-43{fill:#e20013;}.cls-44{fill:#e10013;}.cls-45{fill:#e00013;}.cls-46{fill:#df0013;}.cls-47{fill:#de0012;}.cls-48{fill:#dd0012;}.cls-49{fill:#db0012;}.cls-50{fill:#da0012;}.cls-51{fill:#d90012;}.cls-52{fill:#d80012;}.cls-53{fill:#d70012;}.cls-54{fill:#d60012;}.cls-55{fill:#d50012;}.cls-56{fill:#d40012;}.cls-57{fill:#d20012;}.cls-58{fill:#d10011;}.cls-59{fill:#d00011;}.cls-60{fill:#cf0011;}.cls-61{fill:#ce0011;}.cls-62{fill:#cd0011;}.cls-63{fill:#c01;}.cls-64{fill:#cb0011;}.cls-65{fill:#d20011;}.cls-66{fill:#d30011;}.cls-67{fill:#d40011;}.cls-68{fill:#d50011;}.cls-69{fill:#d60011;}.cls-70{fill:#d70011;}.cls-71{fill:#d80011;}.cls-72{fill:#d90011;}.cls-73{fill:#da0011;}.cls-74{fill:#db0011;}.cls-75{fill:#dc0011;}.cls-76{fill:#d01;}.cls-77{fill:#de0011;}.cls-78{fill:#df0011;}.cls-79{fill:#e00011;}.cls-80{fill:#e10011;}.cls-81{fill:#e20011;}.cls-82{fill:#e30011;}.cls-83{fill:#e40011;}.cls-84{fill:#e50011;}.cls-85{fill:#e60011;}.cls-86{fill:#e70011;}.cls-87{fill:#e80011;}.cls-88{fill:#e90011;}.cls-89{fill:#ea0011;}.cls-90{fill:#eb0011;}.cls-91{fill:#ec0011;}.cls-92{fill:#ed0011;}.cls-93{fill:#e01;}.cls-94{fill:#ef0011;}.cls-95{fill:#f00011;}.cls-96{fill:#f10011;}.cls-97{fill:#f20011;}.cls-98{fill:#f30011;}.cls-99{fill:#f40011;}.cls-100{fill:#f50011;}.cls-101{fill:#f60011;}.cls-102{fill:#f70011;}.cls-103{fill:#f80011;}.cls-104{fill:#f90011;}.cls-105{fill:#fa0011;}.cls-106{fill:#fb0011;}.cls-107{fill:#fc0011;}.cls-108{fill:#fd0011;}.cls-109{fill:#f01;}.cls-110{fill:#f60010;}.cls-111{fill:#f50010;}.cls-112{fill:#f30010;}.cls-113{fill:#f10010;}.cls-114{fill:#ef0010;}.cls-115{fill:#ed0010;}.cls-116{fill:#eb0010;}.cls-117{fill:#e90010;}.cls-118{fill:#e7000f;}.cls-119{fill:#e5000f;}.cls-120{fill:#e3000f;}.cls-121{fill:#e1000f;}.cls-122{fill:#df000f;}.cls-123{fill:#dd000f;}.cls-124{fill:#db000f;}.cls-125{fill:#da000f;}.cls-126{fill:#d8000e;}.cls-127{fill:#d6000e;}.cls-128{fill:#d4000e;}.cls-129{fill:#d2000e;}.cls-130{fill:#d0000e;}.cls-131{fill:#ce000e;}.cls-132{fill:#cc000e;}.cls-133{fill:#ca000d;}.cls-134{fill:#c8000d;}.cls-135{fill:#c6000d;}.cls-136{fill:#c4000d;}.cls-137{fill:#c3000d;}.cls-138{fill:#c5000d;}.cls-139{fill:#c7000d;}.cls-140{fill:#c9010d;}.cls-141{fill:#ca010d;}.cls-142{fill:#cb010d;}.cls-143{fill:#cc010d;}.cls-144{fill:#cd010d;}.cls-145{fill:#ce010d;}.cls-146{fill:#cf010d;}.cls-147{fill:#d0010d;}.cls-148{fill:#d1010d;}.cls-149{fill:#d2010d;}.cls-150{fill:#d3010d;}.cls-151{fill:#d4010d;}.cls-152{fill:#d4020e;}.cls-153{fill:#d5020e;}.cls-154{fill:#d6020e;}.cls-155{fill:#d7020e;}.cls-156{fill:#d8020e;}.cls-157,.cls-158{fill:#d9020e;}.cls-158,.cls-219,.cls-220{fill-rule:evenodd;}.cls-159{fill:#da020e;}.cls-160{fill:#db020e;}.cls-161{fill:#dc020e;}.cls-162{fill:#dd020e;}.cls-163{fill:#de020e;}.cls-164{fill:#df020e;}.cls-165{fill:#e0030e;}.cls-166{fill:#e1030e;}.cls-167{fill:#e2030e;}.cls-168{fill:#e3030e;}.cls-169{fill:#e4030e;}.cls-170{fill:#e5030e;}.cls-171{fill:#e2030d;}.cls-172{fill:#e1030d;}.cls-173{fill:#e0030d;}.cls-174{fill:#de030d;}.cls-175{fill:#dd030d;}.cls-176{fill:#dc030c;}.cls-177{fill:#da030c;}.cls-178{fill:#d9030c;}.cls-179{fill:#d8030c;}.cls-180{fill:#d6020b;}.cls-181{fill:#d5020b;}.cls-182{fill:#d4020b;}.cls-183{fill:#d2020b;}.cls-184{fill:#d1020b;}.cls-185{fill:#d0020a;}.cls-186{fill:#cf020a;}.cls-187{fill:#cd020a;}.cls-188{fill:#cc020a;}.cls-189{fill:#cb0209;}.cls-190{fill:#c90209;}.cls-191{fill:#c80209;}.cls-192{fill:#c70209;}.cls-193{fill:#c50208;}.cls-194{fill:#c40208;}.cls-195{fill:#c30208;}.cls-196{fill:#c10208;}.cls-197{fill:#c00208;}.cls-198{fill:#bf0207;}.cls-199{fill:#be0207;}.cls-200{fill:#bc0107;}.cls-201{fill:#bb0107;}.cls-202{fill:#ba0106;}.cls-203{fill:#b80106;}.cls-204{fill:#b70106;}.cls-205{fill:#b60106;}.cls-206{fill:#b40105;}.cls-207{fill:#b30105;}.cls-208{fill:#b20105;}.cls-209{fill:#b00105;}.cls-210{fill:#af0105;}.cls-211{fill:#ae0104;}.cls-212{fill:#ad0104;}.cls-213{fill:#ab0104;}.cls-214{fill:#aa0104;}.cls-215{fill:#a90103;}.cls-216{fill:#a70103;}.cls-217{fill:#a60103;}.cls-218{fill:#a50103;}</style><clipPath id="clip-path"><path class="cls-1" d="M36.9724,38.99162H13.55576q.09336-.57757.20589-1.14735h.02215A31.84764,31.84764,0,0,1,38.75046,12.87081v-.02094q.56921-.1138,1.14739-.20592V38.99284H50.075V.29006a44.77957,44.77957,0,0,0-10.17717,0V.311q-.57579.06521-1.14739.1471V.43777A44.10155,44.10155,0,0,0,1.35075,37.84488h.01974q-.08048.57154-.14643,1.14674H1.2037A44.71334,44.71334,0,0,0,1.2053,49.1688l10.02952.00061H36.9724Zm13.10262,0H39.89785V49.16941H50.075ZM39.89785,49.16941V87.85392a44.66779,44.66779,0,0,0,10.17717,0v-.02034q.57611-.067,1.148-.147v.01973A44.1005,44.1005,0,0,0,88.61933,50.31676h-.01976q.08051-.57154.14765-1.14735H88.767a44.73617,44.73617,0,0,0,.0018-10.17779H53.01024V49.16941H76.41371q-.09334.57757-.20708,1.14735h-.02037A31.84821,31.84821,0,0,1,51.223,75.2733v.02155c-.38005.07574-.76294.14357-1.148.20592V49.16941Z"/></clipPath></defs><title>logo</title><path class="cls-2" d="M130.856,34.59955h2.35156v6.04639H130.856V44.0722h-6.584V40.64593h-9.876V34.59955l6.4834-14.0415h7.625l-6.584,14.0415H124.272v-3.292h6.584Z"/><path class="cls-2" d="M132.03027,20.558H149.834v6.5166h-5.543V44.0722h-6.71826V27.07464h-5.54248Z"/><path class="cls-2" d="M172.67578,44.0722h-7.22217l-.80615-3.02344h-6.78564l-.80615,3.02344H149.8335L157.32471,20.558h7.86035Zm-11.4209-15.62012-1.94873,7.22217h3.897Z"/><path class="cls-2" d="M180.7373,20.558V37.5556h7.72607v6.5166H174.019V20.558Z"/><path class="cls-2" d="M197.19678,35.27142v2.62012h8.73389V44.0722H190.47852V20.558H205.7627v6.11377h-8.56592v2.55273h7.72607v6.04688Z"/><path class="cls-2" d="M211.9209,20.558h8.39795a7.23129,7.23129,0,0,1,7.39014,7.39014,7.23129,7.23129,0,0,1-7.39014,7.39014H214.272V44.0722H211.9209ZM214.272,33.12152h6.04688a4.80884,4.80884,0,0,0,3.59424-1.44482,5.04669,5.04669,0,0,0,1.44434-3.72852,5.0075,5.0075,0,0,0-1.44434-3.69531,4.7561,4.7561,0,0,0-3.59424-1.478H214.272Z"/><path class="cls-2" d="M248.87158,44.0722h-2.6875l-5.50928-9.40576h-6.584V44.0722h-2.35107V20.558H241.145a7.11178,7.11178,0,0,1,7.05469,7.0542,6.73238,6.73238,0,0,1-1.44482,4.26611,6.91336,6.91336,0,0,1-3.62793,2.48584ZM241.145,22.77484h-7.0542v9.6748h7.0542a4.47749,4.47749,0,0,0,3.32568-1.41113,4.87215,4.87215,0,0,0,1.37744-3.42627A4.79764,4.79764,0,0,0,244.4707,24.186,4.4793,4.4793,0,0,0,241.145,22.77484Z"/><path class="cls-2" d="M271.67969,40.94818a12.32823,12.32823,0,0,1-17.26611,0,11.88655,11.88655,0,0,1-3.52686-8.6333,12.16021,12.16021,0,1,1,24.32031,0A11.88506,11.88506,0,0,1,271.67969,40.94818Zm-15.62012-1.6123a9.97729,9.97729,0,0,0,13.97412,0,9.60052,9.60052,0,0,0,2.82178-7.021,9.56033,9.56033,0,0,0-2.82178-6.98682,9.89442,9.89442,0,0,0-13.97412,0,9.56183,9.56183,0,0,0-2.82129,6.98682A9.602,9.602,0,0,0,256.05957,39.33587Z"/><path class="cls-2" d="M279.2373,20.558h9.06982a10.25936,10.25936,0,0,1,7.92725,3.42627,11.69807,11.69807,0,0,1,3.15771,8.33057,11.81581,11.81581,0,0,1-3.15771,8.36475,10.305,10.305,0,0,1-7.92725,3.39258H279.2373Zm2.35107,21.29687h6.71875a8.06869,8.06869,0,0,0,6.31494-2.75439,9.83373,9.83373,0,0,0,2.48584-6.78564,9.83507,9.83507,0,0,0-2.48584-6.78516,8.07068,8.07068,0,0,0-6.31494-2.75488h-6.71875Z"/><path class="cls-2" d="M303.08691,36.07757V20.558H305.438V36.07757a5.92294,5.92294,0,0,0,1.69678,4.48438,7.55484,7.55484,0,0,0,9.37207,0,5.9263,5.9263,0,0,0,1.69629-4.48437V20.558h2.35156V36.07757a8.01084,8.01084,0,0,1-2.41895,6.11328,9.87042,9.87042,0,0,1-12.63037,0A8.01051,8.01051,0,0,1,303.08691,36.07757Z"/><path class="cls-2" d="M336.57764,44.47552a11.9955,11.9955,0,0,1-12.32812-12.16064,11.99549,11.99549,0,0,1,12.32813-12.16016,11.73813,11.73813,0,0,1,5.9458,1.562,11.17615,11.17615,0,0,1,4.23242,4.21582L344.67334,27.142a8.35626,8.35626,0,0,0-3.292-3.42627,9.34651,9.34651,0,0,0-4.80371-1.27637,9.53784,9.53784,0,0,0-7.18848,2.855,9.7331,9.7331,0,0,0-2.78809,7.02051,9.73263,9.73263,0,0,0,2.78809,7.021,9.536,9.536,0,0,0,7.18848,2.855,9.34178,9.34178,0,0,0,4.80371-1.27637,8.35039,8.35039,0,0,0,3.292-3.42627l2.08252,1.17578a10.747,10.747,0,0,1-4.19873,4.23242A11.8196,11.8196,0,0,1,336.57764,44.47552Z"/><path class="cls-2" d="M348.10156,20.558h16.7959v2.2168h-7.22217V44.0722h-2.35156V22.77484h-7.22217Z"/><path class="cls-2" d="M368.25635,44.0722V20.558h2.35107V44.0722Z"/><path class="cls-2" d="M395.43164,40.94818a12.32823,12.32823,0,0,1-17.26611,0,11.88655,11.88655,0,0,1-3.52686-8.6333,12.16021,12.16021,0,1,1,24.32031,0A11.88506,11.88506,0,0,1,395.43164,40.94818Zm-15.62012-1.6123a9.97729,9.97729,0,0,0,13.97412,0,9.60052,9.60052,0,0,0,2.82178-7.021,9.56033,9.56033,0,0,0-2.82178-6.98682,9.89442,9.89442,0,0,0-13.97412,0,9.56183,9.56183,0,0,0-2.82129,6.98682A9.602,9.602,0,0,0,379.81152,39.33587Z"/><path class="cls-2" d="M418.10547,39.7055V20.558H420.457V44.0722h-2.01562L405.34082,24.92474V44.0722h-2.35156V20.558h2.01563Z"/><g class="cls-3"><rect class="cls-4" x="-31.561" y="15.26777" width="76.29831" height="0.39227" transform="translate(-9.74338 11.48686) rotate(-53.2381)"/><rect class="cls-5" x="-31.33468" y="15.37429" width="76.29836" height="0.51622" transform="translate(-9.79463 11.76637) rotate(-53.34339)"/><rect class="cls-6" x="-31.05856" y="15.57997" width="76.29829" height="0.51629" transform="matrix(0.5966, -0.80254, 0.80254, 0.5966, -9.85033, 12.07946)"/><rect class="cls-7" x="-30.7825" y="15.78538" width="76.29831" height="0.51682" transform="translate(-9.89987 12.3644) rotate(-53.30789)"/><rect class="cls-8" x="-30.50627" y="15.99122" width="76.29831" height="0.51667" transform="translate(-9.95116 12.65632) rotate(-53.26754)"/><rect class="cls-9" x="-30.23017" y="16.19713" width="76.29836" height="0.51631" transform="translate(-10.00908 12.98096) rotate(-53.33355)"/><rect class="cls-10" x="-29.95412" y="16.40299" width="76.29811" height="0.51612" transform="translate(-10.06297 13.28518) rotate(-53.33355)"/><rect class="cls-11" x="-29.67821" y="16.60854" width="76.29855" height="0.51649" transform="translate(-10.1151 13.58015) rotate(-53.3046)"/><rect class="cls-12" x="-29.40183" y="16.81404" width="76.29813" height="0.51678" transform="translate(-10.17084 13.89617) rotate(-53.34037)"/><rect class="cls-13" x="-29.12569" y="17.02001" width="76.29841" height="0.51626" transform="translate(-10.22411 14.19805) rotate(-53.33254)"/><rect class="cls-14" x="-28.8496" y="17.22577" width="76.29807" height="0.51615" transform="translate(-10.27796 14.50224) rotate(-53.33254)"/><rect class="cls-15" x="-28.5736" y="17.43118" width="76.29814" height="0.51649" transform="translate(-10.32898 14.78799) rotate(-53.27937)"/><rect class="cls-16" x="-28.29748" y="17.63694" width="76.29825" height="0.51675" transform="translate(-10.38431 15.10186) rotate(-53.30688)"/><rect class="cls-17" x="-28.02137" y="17.84279" width="76.29849" height="0.51658" transform="translate(-10.43887 15.41185) rotate(-53.32271)"/><rect class="cls-18" x="-27.74523" y="18.04851" width="76.29836" height="0.5163" transform="translate(-10.49061 15.70025) rotate(-53.27937)"/><rect class="cls-18" x="-27.46904" y="18.25419" width="76.29813" height="0.51629" transform="translate(-10.5449 16.00788) rotate(-53.28919)"/><rect class="cls-19" x="-27.19308" y="18.45991" width="76.29816" height="0.51645" transform="translate(-10.59842 16.30782) rotate(-53.27836)"/><rect class="cls-20" x="-26.91696" y="18.66548" width="76.29836" height="0.51678" transform="matrix(0.5966, -0.80254, 0.80254, 0.5966, -10.65605, 16.64805)"/><rect class="cls-21" x="-26.64095" y="18.87117" width="76.29849" height="0.51657" transform="translate(-10.70605 16.9159) rotate(-53.27836)"/><rect class="cls-22" x="-26.36446" y="19.07696" width="76.29807" height="0.51653" transform="translate(-10.75993 17.22048) rotate(-53.27937)"/><rect class="cls-23" x="-26.08863" y="19.28281" width="76.29826" height="0.5163" transform="translate(-10.81579 17.546) rotate(-53.33355)"/><rect class="cls-23" x="-25.81255" y="19.4885" width="76.29825" height="0.51639" transform="translate(-10.87051 17.86145) rotate(-53.36102)"/><rect class="cls-24" x="-25.53643" y="19.69409" width="76.29836" height="0.51655" transform="translate(-10.92279 18.14768) rotate(-53.31643)"/><rect class="cls-25" x="-25.26022" y="19.89975" width="76.2983" height="0.51665" transform="translate(-10.97542 18.43612) rotate(-53.27836)"/><rect class="cls-26" x="-24.98415" y="20.10558" width="76.29831" height="0.51633" transform="translate(-11.0305 18.7584) rotate(-53.3217)"/><rect class="cls-27" x="-24.7081" y="20.31143" width="76.29807" height="0.51616" transform="translate(-11.08444 19.06299) rotate(-53.32271)"/><rect class="cls-27" x="-24.43208" y="20.51702" width="76.29848" height="0.51645" transform="translate(-11.13776 19.35952) rotate(-53.3046)"/><rect class="cls-28" x="-24.15571" y="20.72265" width="76.29829" height="0.51673" transform="translate(-11.19098 19.65276) rotate(-53.27937)"/><rect class="cls-29" x="-23.87964" y="20.92858" width="76.29831" height="0.51634" transform="translate(-11.24604 19.9809) rotate(-53.33355)"/><rect class="cls-30" x="-23.60365" y="21.1343" width="76.29817" height="0.51608" transform="translate(-11.29977 20.28459) rotate(-53.33254)"/><rect class="cls-31" x="-23.32752" y="21.33972" width="76.29816" height="0.51645" transform="translate(-11.3525 20.56415) rotate(-53.27836)"/><rect class="cls-32" x="-23.05149" y="21.54542" width="76.29825" height="0.51676" transform="translate(-11.40715 20.88688) rotate(-53.31871)"/><rect class="cls-32" x="-22.77536" y="21.75127" width="76.29844" height="0.51653" transform="translate(-11.46112 21.19772) rotate(-53.33254)"/><rect class="cls-33" x="-22.49921" y="21.95695" width="76.29831" height="0.51634" transform="translate(-11.514 21.47164) rotate(-53.26855)"/><rect class="cls-34" x="-22.22297" y="22.16263" width="76.29806" height="0.51652" transform="translate(-11.56793 21.77564) rotate(-53.26855)"/><rect class="cls-35" x="-21.94703" y="22.36841" width="76.29834" height="0.51668" transform="matrix(0.59723, -0.80207, 0.80207, 0.59723, -11.6225, 22.10877)"/><rect class="cls-36" x="-21.67099" y="22.57402" width="76.29841" height="0.51675" transform="translate(-11.67649 22.4295) rotate(-53.36203)"/><rect class="cls-37" x="-21.39486" y="22.77968" width="76.2986" height="0.51646" transform="translate(-11.72954 22.69242) rotate(-53.27836)"/><rect class="cls-37" x="-21.11849" y="22.98544" width="76.29812" height="0.51648" transform="translate(-11.78345 22.99649) rotate(-53.27836)"/><rect class="cls-38" x="-20.84266" y="23.19124" width="76.29831" height="0.51634" transform="translate(-11.83755 23.32845) rotate(-53.33355)"/><rect class="cls-39" x="-20.56655" y="23.39698" width="76.29824" height="0.51639" transform="translate(-11.89139 23.65301) rotate(-53.37287)"/><rect class="cls-40" x="-20.29036" y="23.60257" width="76.29832" height="0.5167" transform="matrix(0.59736, -0.80197, 0.80197, 0.59736, -11.94515, 23.92952)"/><rect class="cls-41" x="-20.01401" y="23.80837" width="76.29816" height="0.51645" transform="translate(-11.99894 24.2189) rotate(-53.2902)"/><rect class="cls-41" x="-19.73818" y="24.01416" width="76.29836" height="0.51622" transform="translate(-12.05264 24.54535) rotate(-53.33254)"/><rect class="cls-42" x="-19.46207" y="24.21987" width="76.29819" height="0.51615" transform="translate(-12.10649 24.84377) rotate(-53.3217)"/><rect class="cls-43" x="-19.18604" y="24.42542" width="76.29849" height="0.51658" transform="translate(-12.16042 25.14062) rotate(-53.30789)"/><rect class="cls-44" x="-18.90972" y="24.63109" width="76.29829" height="0.51672" transform="translate(-12.21449 25.42871) rotate(-53.27836)"/><rect class="cls-45" x="-18.63367" y="24.83706" width="76.29836" height="0.51631" transform="translate(-12.26779 25.76335) rotate(-53.33355)"/><rect class="cls-46" x="-18.35757" y="25.04286" width="76.29819" height="0.51616" transform="translate(-12.32163 26.06763) rotate(-53.33355)"/><rect class="cls-47" x="-18.08153" y="25.24828" width="76.29817" height="0.51644" transform="translate(-12.37581 26.35287) rotate(-53.30003)"/><rect class="cls-48" x="-17.8053" y="25.45383" width="76.29817" height="0.51693" transform="matrix(0.59736, -0.80197, 0.80197, 0.59736, -12.42935, 26.66783)"/><rect class="cls-49" x="-17.52939" y="25.65971" width="76.29849" height="0.51658" transform="translate(-12.48291 26.98005) rotate(-53.33254)"/><rect class="cls-50" x="-17.25302" y="25.86545" width="76.29831" height="0.51633" transform="translate(-12.53763 27.25287) rotate(-53.27836)"/><rect class="cls-51" x="-16.97695" y="26.0711" width="76.29802" height="0.51649" transform="translate(-12.59157 27.55736) rotate(-53.27937)"/><rect class="cls-52" x="-16.70098" y="26.27686" width="76.29824" height="0.51676" transform="translate(-12.64493 27.8784) rotate(-53.30789)"/><rect class="cls-53" x="-16.42492" y="26.48264" width="76.29837" height="0.51674" transform="translate(-12.69777 28.20669) rotate(-53.34792)"/><rect class="cls-54" x="-16.14881" y="26.6883" width="76.29859" height="0.51651" transform="translate(-12.75291 28.47613) rotate(-53.2902)"/><rect class="cls-55" x="-15.87249" y="26.89393" width="76.29812" height="0.51648" transform="translate(-12.80734 28.76628) rotate(-53.26754)"/><rect class="cls-56" x="-15.59669" y="27.09973" width="76.29836" height="0.5163" transform="translate(-12.85933 29.11027) rotate(-53.33254)"/><rect class="cls-57" x="-15.3204" y="27.3055" width="76.29824" height="0.51629" transform="translate(-12.91223 29.43171) rotate(-53.35977)"/><rect class="cls-58" x="-15.04431" y="27.51097" width="76.29831" height="0.51681" transform="translate(-12.96737 29.71038) rotate(-53.31871)"/><rect class="cls-59" x="-14.76796" y="27.71688" width="76.29807" height="0.51653" transform="translate(-13.02256 29.98976) rotate(-53.27937)"/><rect class="cls-60" x="-14.49214" y="27.92273" width="76.29826" height="0.5163" transform="translate(-13.07459 30.32709) rotate(-53.33153)"/><rect class="cls-61" x="-14.21596" y="28.12851" width="76.29817" height="0.51608" transform="translate(-13.12782 30.63975) rotate(-53.3444)"/><rect class="cls-62" x="-13.94" y="28.33394" width="76.29839" height="0.51652" transform="translate(-13.18211 30.93506) rotate(-53.33054)"/><rect class="cls-63" x="-13.6637" y="28.53953" width="76.29825" height="0.51675" transform="translate(-13.23855 31.19733) rotate(-53.26653)"/><rect class="cls-64" x="-13.38766" y="28.7455" width="76.29831" height="0.51634" transform="translate(-13.29003 31.53859) rotate(-53.32271)"/><rect class="cls-63" x="-13.11155" y="28.9511" width="76.29836" height="0.5163" transform="translate(-13.34579 31.81246) rotate(-53.27735)"/><rect class="cls-62" x="-12.83544" y="29.15665" width="76.29829" height="0.51673" transform="translate(-13.39771 32.1451) rotate(-53.31972)"/><rect class="cls-61" x="-12.5593" y="29.36238" width="76.29816" height="0.51692" transform="translate(-13.45065 32.46276) rotate(-53.33936)"/><rect class="cls-60" x="-12.28329" y="29.56841" width="76.29849" height="0.51627" transform="translate(-13.50429 32.7684) rotate(-53.34112)"/><rect class="cls-59" x="-12.00698" y="29.77397" width="76.29821" height="0.51627" transform="matrix(0.59761, -0.80179, 0.80179, 0.59761, -13.56002, 33.045)"/><rect class="cls-58" x="-11.73098" y="29.97955" width="76.29807" height="0.51652" transform="translate(-13.61509 33.33388) rotate(-53.27937)"/><rect class="cls-65" x="-11.45496" y="30.18534" width="76.2982" height="0.51672" transform="translate(-13.66697 33.66496) rotate(-53.3177)"/><rect class="cls-66" x="-11.17883" y="30.39107" width="76.29837" height="0.51673" transform="translate(-13.71823 34.00008) rotate(-53.36102)"/><rect class="cls-67" x="-10.90252" y="30.59687" width="76.29831" height="0.51634" transform="translate(-13.77733 34.23846) rotate(-53.26855)"/><rect class="cls-68" x="-10.62652" y="30.80253" width="76.29817" height="0.51644" transform="translate(-13.83009 34.55645) rotate(-53.28818)"/><rect class="cls-69" x="-10.35065" y="31.0084" width="76.29837" height="0.51611" transform="translate(-13.88134 34.89104) rotate(-53.33027)"/><rect class="cls-70" x="-10.07436" y="31.2139" width="76.29824" height="0.51641" transform="translate(-13.93289 35.21946) rotate(-53.36304)"/><rect class="cls-71" x="-9.79829" y="31.41957" width="76.29854" height="0.51653" transform="translate(-13.99229 35.46076) rotate(-53.27735)"/><rect class="cls-72" x="-9.522" y="31.62536" width="76.29811" height="0.51648" transform="translate(-14.04609 35.76628) rotate(-53.27937)"/><rect class="cls-73" x="-9.24612" y="31.83117" width="76.29843" height="0.51633" transform="translate(-14.09637 36.1094) rotate(-53.33153)"/><rect class="cls-74" x="-8.96991" y="32.03703" width="76.29806" height="0.51616" transform="matrix(0.59716, -0.80213, 0.80213, 0.59716, -14.15008, 36.41522)"/><rect class="cls-75" x="-8.69383" y="32.24243" width="76.29836" height="0.51671" transform="translate(-14.20335 36.72407) rotate(-53.33936)"/><rect class="cls-76" x="-8.41773" y="32.44816" width="76.29829" height="0.51666" transform="translate(-14.26082 36.99067) rotate(-53.2902)"/><rect class="cls-77" x="-8.14157" y="32.65411" width="76.29842" height="0.51615" transform="translate(-14.31129 37.32839) rotate(-53.33355)"/><rect class="cls-77" x="-7.86554" y="32.85954" width="76.29832" height="0.51634" transform="translate(-14.37006 37.58189) rotate(-53.26855)"/><rect class="cls-78" x="-7.58942" y="33.0651" width="76.29825" height="0.51676" transform="translate(-14.42095 37.91596) rotate(-53.30688)"/><rect class="cls-79" x="-7.31326" y="33.27093" width="76.29818" height="0.51688" transform="translate(-14.47501 38.21922) rotate(-53.30561)"/><rect class="cls-80" x="-7.03722" y="33.47686" width="76.29854" height="0.51655" transform="matrix(0.59716, -0.80213, 0.80213, 0.59716, -14.52649, 38.54578)"/><rect class="cls-81" x="-6.76108" y="33.68252" width="76.29841" height="0.51626" transform="translate(-14.58308 38.82231) rotate(-53.29902)"/><rect class="cls-82" x="-6.48498" y="33.88817" width="76.29806" height="0.51637" transform="translate(-14.63681 39.12794) rotate(-53.30104)"/><rect class="cls-83" x="-6.20895" y="34.09395" width="76.29834" height="0.51653" transform="translate(-14.69033 39.43592) rotate(-53.30561)"/><rect class="cls-84" x="-5.93276" y="34.29951" width="76.29831" height="0.51681" transform="translate(-14.7381 39.79446) rotate(-53.37186)"/><rect class="cls-85" x="-5.65651" y="34.50535" width="76.29826" height="0.5163" transform="translate(-14.80021 40.02273) rotate(-53.27937)"/><rect class="cls-86" x="-5.38048" y="34.71098" width="76.29807" height="0.51653" transform="translate(-14.85519 40.31763) rotate(-53.26855)"/><rect class="cls-87" x="-5.10447" y="34.91684" width="76.29831" height="0.51634" transform="translate(-14.90394 40.66696) rotate(-53.32271)"/><rect class="cls-88" x="-4.82841" y="35.12255" width="76.29834" height="0.51632" transform="matrix(0.59647, -0.80264, 0.80264, 0.59647, -14.95187, 41.02176)"/><rect class="cls-89" x="-4.55224" y="35.32815" width="76.29844" height="0.51647" transform="translate(-15.01469 41.248) rotate(-53.2902)"/><rect class="cls-90" x="-4.27602" y="35.53384" width="76.29816" height="0.51644" transform="translate(-15.06981 41.54107) rotate(-53.27735)"/><rect class="cls-91" x="-4" y="35.73965" width="76.29837" height="0.5163" transform="matrix(0.59716, -0.80213, 0.80213, 0.59716, -15.11794, 41.89345)"/><rect class="cls-92" x="-3.72392" y="35.94546" width="76.29807" height="0.51615" transform="translate(-15.17202 42.19591) rotate(-53.33153)"/><rect class="cls-93" x="-3.44782" y="36.15089" width="76.29831" height="0.51682" transform="translate(-15.22705 42.49006) rotate(-53.31972)"/><rect class="cls-94" x="-3.17158" y="36.35675" width="76.29819" height="0.51656" transform="translate(-15.2867 42.74659) rotate(-53.26523)"/><rect class="cls-95" x="-2.89549" y="36.56257" width="76.29836" height="0.51622" transform="translate(-15.33208 43.11868) rotate(-53.34238)"/><rect class="cls-96" x="-2.61956" y="36.76818" width="76.29836" height="0.51623" transform="translate(-15.39164 43.37652) rotate(-53.2902)"/><rect class="cls-97" x="-2.34346" y="36.97368" width="76.29829" height="0.51664" transform="translate(-15.4424 43.70518) rotate(-53.3177)"/><rect class="cls-97" x="-2.06715" y="37.17937" width="76.29812" height="0.51692" transform="translate(-15.49749 43.99983) rotate(-53.30688)"/><rect class="cls-98" x="-1.7912" y="37.3853" width="76.29849" height="0.51658" transform="translate(-15.54951 44.3184) rotate(-53.32271)"/><rect class="cls-99" x="-1.51506" y="37.59102" width="76.29836" height="0.51631" transform="translate(-15.60832 44.5831) rotate(-53.27937)"/><rect class="cls-100" x="-1.23901" y="37.7967" width="76.29812" height="0.51648" transform="translate(-15.66255 44.88515) rotate(-53.27735)"/><rect class="cls-101" x="-0.9628" y="38.0024" width="76.29825" height="0.51661" transform="translate(-15.70888 45.24657) rotate(-53.33936)"/><rect class="cls-102" x="-0.68675" y="38.20816" width="76.29859" height="0.51651" transform="translate(-15.76331 45.54564) rotate(-53.33355)"/><rect class="cls-103" x="-0.41053" y="38.4138" width="76.29831" height="0.51633" transform="translate(-15.82399 45.79737) rotate(-53.27735)"/><rect class="cls-104" x="-0.13444" y="38.61947" width="76.29819" height="0.51652" transform="translate(-15.87768 46.10324) rotate(-53.27937)"/><rect class="cls-105" x="0.14155" y="38.82532" width="76.29826" height="0.5163" transform="translate(-15.92492 46.45658) rotate(-53.33153)"/><rect class="cls-106" x="0.41787" y="39.03088" width="76.29807" height="0.51664" transform="translate(-15.97455 46.791) rotate(-53.36304)"/><rect class="cls-107" x="0.69374" y="39.23668" width="76.29848" height="0.51658" transform="translate(-16.0408 47.00501) rotate(-53.26855)"/><rect class="cls-108" x="0.97014" y="39.44247" width="76.29813" height="0.51629" transform="translate(-16.09197 47.32797) rotate(-53.28818)"/><rect class="cls-109" x="1.246" y="39.64814" width="76.29836" height="0.5163" transform="translate(-16.14119 47.66539) rotate(-53.32271)"/><rect class="cls-107" x="1.52211" y="39.85382" width="76.29829" height="0.51635" transform="translate(-16.18823 48.01757) rotate(-53.37186)"/><rect class="cls-105" x="1.79817" y="40.05941" width="76.29842" height="0.5167" transform="translate(-16.2512 48.25719) rotate(-53.30561)"/><rect class="cls-103" x="2.07448" y="40.26511" width="76.29824" height="0.51676" transform="translate(-16.30867 48.53559) rotate(-53.27937)"/><rect class="cls-110" x="2.35053" y="40.47109" width="76.29831" height="0.51634" transform="translate(-16.3549 48.89339) rotate(-53.33355)"/><rect class="cls-111" x="2.62648" y="40.6767" width="76.29826" height="0.5163" transform="translate(-16.41673 49.14144) rotate(-53.27735)"/><rect class="cls-112" x="2.90256" y="40.8822" width="76.29836" height="0.51657" transform="translate(-16.46486 49.48468) rotate(-53.31643)"/><rect class="cls-113" x="3.1789" y="41.0879" width="76.29811" height="0.5169" transform="translate(-16.51826 49.79239) rotate(-53.31972)"/><rect class="cls-114" x="3.45503" y="41.29386" width="76.29831" height="0.51633" transform="translate(-16.57184 50.09772) rotate(-53.32069)"/><rect class="cls-115" x="3.73096" y="41.49946" width="76.29831" height="0.51634" transform="translate(-16.63348 50.34855) rotate(-53.26855)"/><rect class="cls-116" x="4.00718" y="41.70513" width="76.29812" height="0.51648" transform="translate(-16.68604 50.6616) rotate(-53.27735)"/><rect class="cls-117" x="4.28317" y="41.91092" width="76.29829" height="0.51673" transform="translate(-16.73357 51.00943) rotate(-53.31972)"/><rect class="cls-118" x="4.55942" y="42.11667" width="76.29824" height="0.5164" transform="translate(-16.78506 51.32809) rotate(-53.33355)"/><rect class="cls-119" x="4.83546" y="42.32242" width="76.29831" height="0.5162" transform="translate(-16.84393 51.59843) rotate(-53.30104)"/><rect class="cls-120" x="5.11166" y="42.528" width="76.29816" height="0.51645" transform="translate(-16.90119 51.87985) rotate(-53.27937)"/><rect class="cls-121" x="5.38751" y="42.73376" width="76.29832" height="0.51634" transform="translate(-16.94641 52.24093) rotate(-53.33355)"/><rect class="cls-122" x="5.66386" y="42.93938" width="76.29807" height="0.51663" transform="translate(-16.99392 52.58605) rotate(-53.37186)"/><rect class="cls-123" x="5.93984" y="43.1452" width="76.29839" height="0.51646" transform="translate(-17.06288 52.79194) rotate(-53.27937)"/><rect class="cls-124" x="6.21622" y="43.3509" width="76.29807" height="0.51653" transform="translate(-17.11851 53.08446) rotate(-53.26855)"/><rect class="cls-125" x="6.49202" y="43.55676" width="76.29831" height="0.51633" transform="translate(-17.16378 53.44455) rotate(-53.32069)"/><rect class="cls-126" x="6.76808" y="43.76235" width="76.29834" height="0.51633" transform="translate(-17.21029 53.79467) rotate(-53.36304)"/><rect class="cls-127" x="7.04429" y="43.96784" width="76.29837" height="0.51675" transform="translate(-17.27326 54.04025) rotate(-53.3089)"/><rect class="cls-128" x="7.32045" y="44.1736" width="76.29829" height="0.51672" transform="translate(-17.33254 54.3099) rotate(-53.27735)"/><rect class="cls-129" x="7.5965" y="44.37957" width="76.29836" height="0.5163" transform="matrix(0.59716, -0.80213, 0.80213, 0.59716, -17.37666, 54.67583)"/><rect class="cls-130" x="7.87245" y="44.58513" width="76.29831" height="0.51634" transform="translate(-17.43996 54.91998) rotate(-53.27937)"/><rect class="cls-131" x="8.14879" y="44.79067" width="76.2982" height="0.51673" transform="translate(-17.4866 55.26907) rotate(-53.31972)"/><rect class="cls-132" x="8.42496" y="44.99657" width="76.29829" height="0.51666" transform="translate(-17.54384 55.55257) rotate(-53.30104)"/><rect class="cls-133" x="8.70098" y="45.20243" width="76.29841" height="0.51627" transform="matrix(0.59716, -0.80213, 0.80213, 0.59716, -17.59174, 55.89326)"/><rect class="cls-134" x="8.977" y="45.40798" width="76.29831" height="0.51622" transform="translate(-17.65794 56.12018) rotate(-53.26523)"/><rect class="cls-135" x="9.2532" y="45.61357" width="76.29807" height="0.51652" transform="translate(-17.71125 56.42789) rotate(-53.26855)"/><rect class="cls-136" x="9.52943" y="45.81925" width="76.29807" height="0.517" transform="translate(-17.75811 56.77582) rotate(-53.30688)"/><rect class="cls-137" x="9.80539" y="46.02515" width="76.2983" height="0.51636" transform="translate(-17.80682 57.11054) rotate(-53.33355)"/><rect class="cls-136" x="10.08148" y="46.23094" width="76.29848" height="0.51631" transform="translate(-17.87091 57.35246) rotate(-53.27937)"/><rect class="cls-136" x="10.35766" y="46.43655" width="76.29817" height="0.51644" transform="translate(-17.92103 57.67918) rotate(-53.29902)"/><rect class="cls-138" x="10.63352" y="46.64216" width="76.29859" height="0.51651" transform="translate(-17.96028 58.07049) rotate(-53.37388)"/><rect class="cls-138" x="10.90988" y="46.84784" width="76.29812" height="0.51656" transform="translate(-18.01675 58.35856) rotate(-53.35977)"/><rect class="cls-135" x="11.18592" y="47.0536" width="76.29849" height="0.51657" transform="translate(-18.08674 58.5662) rotate(-53.27735)"/><rect class="cls-135" x="11.46223" y="47.25938" width="76.29802" height="0.51648" transform="translate(-18.14025 58.87259) rotate(-53.27937)"/><rect class="cls-135" x="11.73802" y="47.46519" width="76.29831" height="0.51634" transform="translate(-18.18553 59.22798) rotate(-53.32271)"/><rect class="cls-139" x="12.01414" y="47.67096" width="76.29831" height="0.51632" transform="translate(-18.23404 59.5636) rotate(-53.34893)"/><rect class="cls-139" x="12.29032" y="47.87646" width="76.29841" height="0.51674" transform="matrix(0.59723, -0.80207, 0.80207, 0.59723, -18.29192, 59.84365)"/><rect class="cls-134" x="12.56667" y="48.08225" width="76.29817" height="0.51645" transform="translate(-18.35792 60.07573) rotate(-53.26855)"/><rect class="cls-134" x="12.84252" y="48.28802" width="76.29831" height="0.51633" transform="translate(-18.40108 60.4427) rotate(-53.32069)"/><rect class="cls-140" x="13.11854" y="48.49365" width="76.29843" height="0.51622" transform="translate(-18.46343 60.69662) rotate(-53.27937)"/><rect class="cls-140" x="13.39473" y="48.69917" width="76.2983" height="0.51672" transform="translate(-18.50926 61.04755) rotate(-53.3177)"/><rect class="cls-141" x="13.67098" y="48.90504" width="76.29825" height="0.51676" transform="translate(-18.5713 61.30488) rotate(-53.27937)"/><rect class="cls-141" x="13.94705" y="49.111" width="76.29825" height="0.51631" transform="translate(-18.6136 61.67576) rotate(-53.33355)"/><rect class="cls-142" x="14.22312" y="49.31659" width="76.29836" height="0.51622" transform="translate(-18.6747 61.93723) rotate(-53.29902)"/><rect class="cls-142" x="14.49917" y="49.5222" width="76.29811" height="0.51641" transform="translate(-18.73053 62.23025) rotate(-53.2902)"/><rect class="cls-143" x="14.77533" y="49.72766" width="76.29826" height="0.51678" transform="translate(-18.76632 62.6366) rotate(-53.37186)"/><rect class="cls-143" x="15.05149" y="49.93363" width="76.29819" height="0.51632" transform="translate(-18.83095 62.8794) rotate(-53.32271)"/><rect class="cls-144" x="15.32765" y="50.13939" width="76.29831" height="0.51634" transform="translate(-18.8968 63.11538) rotate(-53.26855)"/><rect class="cls-144" x="15.60368" y="50.34505" width="76.29812" height="0.51649" transform="translate(-18.94836 63.43296) rotate(-53.27937)"/><rect class="cls-145" x="15.87954" y="50.55079" width="76.29854" height="0.51654" transform="translate(-18.98132 63.85485) rotate(-53.37186)"/><rect class="cls-145" x="16.15591" y="50.75653" width="76.29817" height="0.5164" transform="translate(-19.03278 64.17174) rotate(-53.38146)"/><rect class="cls-146" x="16.43194" y="50.96217" width="76.29844" height="0.51647" transform="translate(-19.10495 64.37298) rotate(-53.30104)"/><rect class="cls-146" x="16.70821" y="51.16783" width="76.29806" height="0.51651" transform="translate(-19.16424 64.6465) rotate(-53.27735)"/><rect class="cls-146" x="16.98401" y="51.37368" width="76.29831" height="0.51634" transform="translate(-19.20513 65.02332) rotate(-53.33355)"/><rect class="cls-147" x="17.26035" y="51.5794" width="76.2982" height="0.51636" transform="translate(-19.24982 65.37773) rotate(-53.37186)"/><rect class="cls-147" x="17.53636" y="51.78491" width="76.29831" height="0.51682" transform="translate(-19.31851 65.59987) rotate(-53.3089)"/><rect class="cls-148" x="17.81266" y="51.9908" width="76.29816" height="0.51645" transform="translate(-19.37673 65.87957) rotate(-53.2902)"/><rect class="cls-148" x="18.08854" y="52.19667" width="76.29838" height="0.51611" transform="translate(-19.42101 66.23647) rotate(-53.33027)"/><rect class="cls-149" x="18.36469" y="52.40215" width="76.29821" height="0.51627" transform="translate(-19.48437 66.48756) rotate(-53.2902)"/><rect class="cls-149" x="18.64072" y="52.6076" width="76.29829" height="0.51672" transform="translate(-19.53151 66.82825) rotate(-53.3177)"/><rect class="cls-150" x="18.91695" y="52.81351" width="76.29829" height="0.51673" transform="translate(-19.59482 67.0814) rotate(-53.27937)"/><rect class="cls-150" x="19.19306" y="53.01944" width="76.29843" height="0.51634" transform="matrix(0.59716, -0.80213, 0.80213, 0.59716, -19.63531, 67.45829)"/><rect class="cls-151" x="19.46915" y="53.22505" width="76.29831" height="0.51634" transform="translate(-19.70251 67.68942) rotate(-53.27937)"/><rect class="cls-152" x="19.74523" y="53.43057" width="76.2983" height="0.51665" transform="translate(-19.74135 68.0747) rotate(-53.33936)"/><rect class="cls-153" x="20.02127" y="53.63625" width="76.29836" height="0.51671" transform="translate(-19.78363 68.44076) rotate(-53.38472)"/><rect class="cls-154" x="20.29748" y="53.84222" width="76.2984" height="0.51625" transform="translate(-19.85034 68.67559) rotate(-53.33355)"/><rect class="cls-155" x="20.57367" y="54.04787" width="76.29826" height="0.51629" transform="translate(-19.91844 68.90281) rotate(-53.27735)"/><rect class="cls-156" x="20.84969" y="54.25349" width="76.29806" height="0.51652" transform="translate(-19.97466 69.19455) rotate(-53.26855)"/><rect class="cls-157" x="21.12558" y="54.45927" width="76.29855" height="0.51649" transform="translate(-20.00829 69.60702) rotate(-53.34692)"/><polygon class="cls-158" points="82.136 24.177 82.551 24.485 36.966 85.669 36.552 85.361 82.136 24.177"/><rect class="cls-159" x="21.67813" y="54.8708" width="76.29835" height="0.51631" transform="matrix(0.59776, -0.80167, 0.80167, 0.59776, -20.13062, 70.13691)"/><rect class="cls-160" x="21.9542" y="55.07644" width="76.29807" height="0.51638" transform="translate(-20.18166 70.45603) rotate(-53.30104)"/><rect class="cls-161" x="22.23008" y="55.28224" width="76.29847" height="0.51619" transform="translate(-20.22685 70.8059) rotate(-53.33355)"/><rect class="cls-162" x="22.50631" y="55.48785" width="76.29825" height="0.51639" transform="translate(-20.27032 71.16437) rotate(-53.37186)"/><rect class="cls-163" x="22.78242" y="55.69352" width="76.29849" height="0.51658" transform="translate(-20.34897 71.33786) rotate(-53.27937)"/><rect class="cls-163" x="23.05873" y="55.8993" width="76.29802" height="0.51648" transform="translate(-20.40287 71.64188) rotate(-53.27937)"/><rect class="cls-164" x="23.33471" y="56.10511" width="76.29831" height="0.51634" transform="translate(-20.44495 72.00791) rotate(-53.32271)"/><rect class="cls-165" x="23.61059" y="56.3107" width="76.29841" height="0.51626" transform="translate(-20.50816 72.26241) rotate(-53.28818)"/><rect class="cls-166" x="23.88698" y="56.51611" width="76.29807" height="0.51686" transform="translate(-20.55027 72.62764) rotate(-53.33054)"/><rect class="cls-167" x="24.16295" y="56.72201" width="76.29829" height="0.51672" transform="translate(-20.62193 72.83934) rotate(-53.26653)"/><rect class="cls-168" x="24.43919" y="56.92792" width="76.29836" height="0.51629" transform="translate(-20.65759 73.23788) rotate(-53.33153)"/><rect class="cls-168" x="24.71511" y="57.13353" width="76.29836" height="0.5163" transform="translate(-20.72604 73.46594) rotate(-53.27937)"/><rect class="cls-169" x="24.99125" y="57.33904" width="76.29824" height="0.51676" transform="translate(-20.7691 73.82609) rotate(-53.3177)"/><rect class="cls-170" x="25.26742" y="57.54485" width="76.29826" height="0.51662" transform="translate(-20.81089 74.19225) rotate(-53.35977)"/><rect class="cls-168" x="25.54358" y="57.75071" width="76.29829" height="0.51629" transform="translate(-20.86589 74.49012) rotate(-53.35524)"/><rect class="cls-171" x="25.81962" y="57.95645" width="76.29836" height="0.51624" transform="matrix(0.59776, -0.80167, 0.80167, 0.59776, -20.9384, 74.69818)"/><rect class="cls-172" x="26.09567" y="58.16207" width="76.29811" height="0.5164" transform="translate(-20.99604 74.98301) rotate(-53.27735)"/><rect class="cls-173" x="26.37175" y="58.36766" width="76.29849" height="0.51657" transform="translate(-21.0254 75.41209) rotate(-53.36102)"/><rect class="cls-174" x="26.64805" y="58.57339" width="76.29807" height="0.51663" transform="translate(-21.07918 75.7166) rotate(-53.36102)"/><rect class="cls-175" x="26.92413" y="58.7793" width="76.29837" height="0.5163" transform="translate(-21.157 75.89834) rotate(-53.27937)"/><rect class="cls-176" x="27.20017" y="58.98497" width="76.29811" height="0.51649" transform="translate(-21.21099 76.20224) rotate(-53.27937)"/><rect class="cls-177" x="27.47622" y="59.19075" width="76.29826" height="0.51622" transform="translate(-21.24599 76.60179) rotate(-53.34238)"/><rect class="cls-178" x="27.75226" y="59.39637" width="76.29834" height="0.51633" transform="translate(-21.29024 76.95408) rotate(-53.37388)"/><rect class="cls-179" x="28.02842" y="59.60195" width="76.29849" height="0.51657" transform="translate(-21.37308 77.11129) rotate(-53.27735)"/><rect class="cls-180" x="28.30474" y="59.80775" width="76.29818" height="0.51651" transform="translate(-21.42697 77.41538) rotate(-53.27735)"/><rect class="cls-181" x="28.58073" y="60.01359" width="76.29826" height="0.5163" transform="translate(-21.46374 77.80585) rotate(-53.33355)"/><rect class="cls-182" x="28.85672" y="60.21908" width="76.29844" height="0.51654" transform="translate(-21.52233 78.08565) rotate(-53.3177)"/><rect class="cls-183" x="29.13298" y="60.42459" width="76.29807" height="0.517" transform="translate(-21.57951 78.3731) rotate(-53.30688)"/><rect class="cls-184" x="29.40908" y="60.63062" width="76.2983" height="0.51653" transform="translate(-21.63853 78.65145) rotate(-53.2902)"/><rect class="cls-185" x="29.68516" y="60.83645" width="76.29841" height="0.51627" transform="translate(-21.68222 79.00635) rotate(-53.32271)"/><rect class="cls-186" x="29.96114" y="61.04198" width="76.29831" height="0.51633" transform="translate(-21.75358 79.22231) rotate(-53.26653)"/><rect class="cls-187" x="30.23724" y="61.24756" width="76.29836" height="0.51664" transform="translate(-21.79517 79.58781) rotate(-53.30561)"/><rect class="cls-188" x="30.51346" y="61.45326" width="76.29837" height="0.51678" transform="translate(-21.82791 79.99676) rotate(-53.37186)"/><rect class="cls-189" x="30.78959" y="61.65918" width="76.29826" height="0.5164" transform="translate(-21.89393 80.24058) rotate(-53.33355)"/><rect class="cls-190" x="31.06566" y="61.86496" width="76.29825" height="0.51631" transform="translate(-21.96512 80.45869) rotate(-53.27937)"/><rect class="cls-191" x="31.34173" y="62.07061" width="76.29819" height="0.51636" transform="translate(-22.01266 80.79401) rotate(-53.29902)"/><rect class="cls-192" x="31.61771" y="62.27624" width="76.29858" height="0.51652" transform="translate(-22.04213 81.21818) rotate(-53.37388)"/><rect class="cls-193" x="31.89412" y="62.48199" width="76.2982" height="0.51636" transform="translate(-22.10962 81.45474) rotate(-53.33153)"/><rect class="cls-194" x="32.17014" y="62.68774" width="76.29831" height="0.51633" transform="translate(-22.18406 81.65737) rotate(-53.26855)"/><rect class="cls-195" x="32.4464" y="62.89341" width="76.29806" height="0.51653" transform="translate(-22.23799 81.96138) rotate(-53.26855)"/><rect class="cls-196" x="32.72217" y="63.09926" width="76.29836" height="0.5163" transform="translate(-22.27046 82.3709) rotate(-53.33355)"/><rect class="cls-197" x="32.99855" y="63.30482" width="76.29807" height="0.51664" transform="translate(-22.31141 82.73784) rotate(-53.37186)"/><rect class="cls-198" x="33.27441" y="63.51057" width="76.29849" height="0.51643" transform="matrix(0.59761, -0.80179, 0.80179, 0.59761, -22.38883, 82.9264)"/><rect class="cls-199" x="33.55085" y="63.71627" width="76.29817" height="0.51644" transform="translate(-22.44987 83.19509) rotate(-53.27937)"/><rect class="cls-200" x="33.8267" y="63.92203" width="76.29831" height="0.51633" transform="translate(-22.48618 83.58497) rotate(-53.33153)"/><rect class="cls-201" x="34.10269" y="64.12752" width="76.29849" height="0.51659" transform="translate(-22.54391 83.8697) rotate(-53.31972)"/><rect class="cls-202" x="34.3791" y="64.33315" width="76.29802" height="0.5168" transform="translate(-22.60322 84.14725) rotate(-53.30359)"/><rect class="cls-203" x="34.65516" y="64.53906" width="76.29825" height="0.51676" transform="translate(-22.66916 84.39316) rotate(-53.26855)"/><rect class="cls-204" x="34.9312" y="64.74503" width="76.2983" height="0.51634" transform="translate(-22.70445 84.78767) rotate(-53.32271)"/><rect class="cls-205" x="35.20713" y="64.9506" width="76.29831" height="0.51619" transform="translate(-22.76941 85.03719) rotate(-53.2902)"/><rect class="cls-206" x="35.4834" y="65.15605" width="76.29834" height="0.5167" transform="translate(-22.81668 85.37289) rotate(-53.3089)"/><rect class="cls-207" x="35.75948" y="65.36169" width="76.29831" height="0.51682" transform="translate(-22.85222 85.76509) rotate(-53.36102)"/><rect class="cls-208" x="36.0358" y="65.56778" width="76.29812" height="0.51611" transform="translate(-22.91562 86.02314) rotate(-53.33355)"/><rect class="cls-209" x="36.31163" y="65.7734" width="76.29832" height="0.51634" transform="translate(-22.98864 86.23521) rotate(-53.27937)"/><rect class="cls-210" x="36.58789" y="65.97908" width="76.29807" height="0.51651" transform="translate(-23.04255 86.53928) rotate(-53.27937)"/><rect class="cls-211" x="36.86377" y="66.18481" width="76.29845" height="0.51654" transform="translate(-23.06339 87.00164) rotate(-53.37186)"/><rect class="cls-212" x="37.14002" y="66.39054" width="76.2984" height="0.51636" transform="translate(-23.13079 87.24047) rotate(-53.33355)"/><rect class="cls-213" x="37.41616" y="66.59627" width="76.29837" height="0.51626" transform="translate(-23.20913 87.42705) rotate(-53.26523)"/><rect class="cls-214" x="37.69241" y="66.80189" width="76.29802" height="0.51648" transform="translate(-23.25869 87.75194) rotate(-53.27735)"/><rect class="cls-215" x="37.9682" y="67.00769" width="76.2983" height="0.51634" transform="translate(-23.29616 88.13453) rotate(-53.32271)"/><rect class="cls-216" x="38.24454" y="67.21332" width="76.29806" height="0.51663" transform="translate(-23.33591 88.50563) rotate(-53.36102)"/><rect class="cls-217" x="38.52063" y="67.41889" width="76.29835" height="0.51665" transform="translate(-23.4195 88.66756) rotate(-53.27937)"/><rect class="cls-218" x="38.79687" y="67.62483" width="76.29811" height="0.51649" transform="translate(-23.4695 88.99064) rotate(-53.2902)"/><rect class="cls-4" x="39.07265" y="67.83056" width="76.29841" height="0.51626" transform="translate(-23.50728 89.37076) rotate(-53.33355)"/><rect class="cls-5" x="39.34867" y="68.03604" width="76.2986" height="0.51647" transform="translate(-23.57136 89.62578) rotate(-53.30561)"/><rect class="cls-6" x="39.62516" y="68.24151" width="76.29807" height="0.517" transform="translate(-23.62063 89.95147) rotate(-53.3177)"/><rect class="cls-7" x="39.90115" y="68.44755" width="76.29825" height="0.51676" transform="translate(-23.68901 90.18772) rotate(-53.27937)"/><rect class="cls-8" x="40.17722" y="68.65351" width="76.29827" height="0.51631" transform="translate(-23.72246 90.58825) rotate(-53.33355)"/><rect class="cls-9" x="40.45317" y="68.85907" width="76.29843" height="0.51634" transform="translate(-23.80081 90.77631) rotate(-53.26855)"/><rect class="cls-10" x="40.72939" y="69.06461" width="76.29835" height="0.51669" transform="matrix(0.59723, -0.80207, 0.80207, 0.59723, -23.83183, 91.18787)"/><rect class="cls-11" x="41.00549" y="69.27034" width="76.29859" height="0.5165" transform="translate(-23.88774 91.48178) rotate(-53.32271)"/><rect class="cls-12" x="41.28183" y="69.47622" width="76.29807" height="0.51615" transform="translate(-23.94233 91.78239) rotate(-53.32069)"/><rect class="cls-13" x="41.55772" y="69.68193" width="76.29843" height="0.51621" transform="translate(-24.01288 92.00819) rotate(-53.27735)"/><rect class="cls-14" x="41.83386" y="69.88756" width="76.29811" height="0.51649" transform="translate(-24.06607 92.3158) rotate(-53.27937)"/><rect class="cls-15" x="42.10999" y="70.09313" width="76.2983" height="0.51681" transform="translate(-24.08383 92.7884) rotate(-53.37186)"/><rect class="cls-16" x="42.38609" y="70.2991" width="76.29824" height="0.51641" transform="matrix(0.59716, -0.80213, 0.80213, 0.59716, -24.15264, 93.02296)"/><rect class="cls-17" x="42.66231" y="70.50486" width="76.29835" height="0.51624" transform="translate(-24.21911 93.26782) rotate(-53.30104)"/><rect class="cls-18" x="42.93836" y="70.71048" width="76.29812" height="0.51641" transform="matrix(0.59776, -0.80167, 0.80167, 0.59776, -24.27729, 93.55191)"/><rect class="cls-18" x="43.21427" y="70.91606" width="76.29845" height="0.51654" transform="translate(-24.29867 94.00657) rotate(-53.37186)"/><rect class="cls-19" x="43.49063" y="71.12182" width="76.29808" height="0.51648" transform="translate(-24.36154 94.26877) rotate(-53.34893)"/><rect class="cls-20" x="43.76671" y="71.3273" width="76.29825" height="0.51676" transform="translate(-24.44733 94.42401) rotate(-53.26855)"/><rect class="cls-21" x="44.04286" y="71.53332" width="76.29813" height="0.51649" transform="translate(-24.49704 94.74819) rotate(-53.27937)"/><rect class="cls-22" x="44.31867" y="71.73918" width="76.29835" height="0.51631" transform="translate(-24.52918 95.15328) rotate(-53.33355)"/><rect class="cls-23" x="44.59483" y="71.94466" width="76.29848" height="0.51645" transform="translate(-24.59054 95.42181) rotate(-53.31442)"/><rect class="cls-23" x="44.87116" y="72.15013" width="76.29807" height="0.51686" transform="translate(-24.63333 95.7767) rotate(-53.34137)"/><rect class="cls-24" x="45.14737" y="72.35615" width="76.29812" height="0.51648" transform="translate(-24.71329 95.96056) rotate(-53.27735)"/><rect class="cls-25" x="45.42319" y="72.56195" width="76.29831" height="0.51633" transform="matrix(0.59716, -0.80213, 0.80213, 0.59716, -24.74422, 96.37069)"/><polygon class="cls-219" points="106.434 42.279 106.333 42.204 60.749 103.388 60.849 103.464 106.434 42.279"/></g><path class="cls-220" d="M52.94521,7.99233c23.83942,5.52192,28.848,25.16575,29.257,26.889-3.1106-14.6297-14.62851-25.52887-29.257-28.64237Z"/><path class="cls-220" d="M37.02826,80.5753C13.18885,75.05338,8.17967,55.40955,7.77087,53.68573c3.11042,14.6297,14.62849,25.52887,29.2574,28.643Z"/><path class="cls-2" d="M120.17529,66.27H125.54v.55176a4.51274,4.51274,0,0,1-1.42578,3.37207,5.32124,5.32124,0,0,1-3.81641,1.36426,5.54834,5.54834,0,1,1,2.72852-10.37646,5.07489,5.07489,0,0,1,1.91553,1.916l-.9502.55176a3.81207,3.81207,0,0,0-1.502-1.56348,4.26442,4.26442,0,0,0-2.19189-.58252,4.35316,4.35316,0,0,0-3.27979,1.30273,4.66971,4.66971,0,0,0,0,6.40674,4.9178,4.9178,0,0,0,6.17676.39844,3.515,3.515,0,0,0,1.24121-2.32959h-4.26074Z"/><path class="cls-2" d="M137.46338,71.374H136.3291l-.99609-2.63623h-5.08838l-.99609,2.63623h-1.13428l4.123-10.72852h1.10352Zm-4.67432-9.39551L130.62793,67.726h4.32178Z"/><path class="cls-2" d="M149.51123,60.64544h1.3335V71.374H149.772V62.27l-3.75488,6.28369h-.15332L142.1084,62.27v9.104h-1.07275V60.64544h1.3335l3.57129,5.97705Z"/><path class="cls-2" d="M156.56152,66.46918v3.89307h5.21143V71.374h-6.28418V60.64544h6.20752v1.01123h-5.13477v3.80127H161.313v1.01123Z"/><path class="cls-2" d="M173.00732,71.558a4.44919,4.44919,0,0,1-2.52148-.69775,3.63615,3.63615,0,0,1-1.46338-1.92334l.91943-.53662a2.769,2.769,0,0,0,1.08057,1.56348,3.40718,3.40718,0,0,0,2,.55176,2.96238,2.96238,0,0,0,1.85449-.521,1.68739,1.68739,0,0,0,.67432-1.41016,1.45219,1.45219,0,0,0-.61279-1.272,7.80275,7.80275,0,0,0-2.02344-.88916,12.15629,12.15629,0,0,1-2.207-.88867,2.34534,2.34534,0,0,1-1.22607-2.13037,2.629,2.629,0,0,1,.9502-2.146,3.489,3.489,0,0,1,2.34521-.79687,3.72064,3.72064,0,0,1,2.14551.63623,3.8858,3.8858,0,0,1,1.395,1.67822l-.9043.50586a2.64482,2.64482,0,0,0-2.63623-1.77832,2.46762,2.46762,0,0,0-1.61719.49854,1.66222,1.66222,0,0,0-.60547,1.356,1.35463,1.35463,0,0,0,.55176,1.1958,7.325,7.325,0,0,0,1.82422.812l.82764.2915a7.74361,7.74361,0,0,1,.73584.27588,3.78071,3.78071,0,0,1,.72021.33691,2.728,2.728,0,0,1,1.02686.9043,2.55109,2.55109,0,0,1,.3833,1.37939,2.70817,2.70817,0,0,1-.99658,2.19189A4.0173,4.0173,0,0,1,173.00732,71.558Z"/><path class="cls-2" d="M179.35254,60.64544h7.66309v1.01123H183.7207V71.374h-1.07324V61.65668h-3.29492Z"/><path class="cls-2" d="M190.58936,67.726V60.64544h1.07275V67.726a2.70346,2.70346,0,0,0,.77441,2.04639,3.4468,3.4468,0,0,0,4.27588,0,2.70318,2.70318,0,0,0,.77393-2.04639V60.64544h1.07324V67.726a3.65639,3.65639,0,0,1-1.10352,2.78955,4.50384,4.50384,0,0,1-5.76318,0A3.65639,3.65639,0,0,1,190.58936,67.726Z"/><path class="cls-2" d="M203.04932,60.64544h4.13818a4.6821,4.6821,0,0,1,3.61719,1.563,5.33806,5.33806,0,0,1,1.44092,3.80127,5.39181,5.39181,0,0,1-1.44092,3.81641A4.70224,4.70224,0,0,1,207.1875,71.374h-4.13818Zm1.07275,9.7168h3.06543a3.67963,3.67963,0,0,0,2.88135-1.25684,4.79225,4.79225,0,0,0,0-6.19189,3.68279,3.68279,0,0,0-2.88135-1.25684h-3.06543Z"/><path class="cls-2" d="M216.27588,71.374V60.64544h1.07275V71.374Z"/><path class="cls-2" d="M230.86865,69.94867a5.625,5.625,0,0,1-7.87793,0,5.4229,5.4229,0,0,1-1.60889-3.939,5.54812,5.54812,0,1,1,11.09619,0A5.42141,5.42141,0,0,1,230.86865,69.94867Zm-7.12646-.73584a4.55151,4.55151,0,0,0,6.37549,0,4.60915,4.60915,0,0,0,0-6.39111,4.5131,4.5131,0,0,0-6.37549,0,4.60914,4.60914,0,0,0,0,6.39111Z"/></svg>