<svg height="512" viewBox="0 0 509.869 509.869" width="512" xmlns="http://www.w3.org/2000/svg"><path d="M82.35 325.327a7.5 7.5 0 007.5-7.5V266.14a7.5 7.5 0 00-15 0v51.687a7.5 7.5 0 007.5 7.5zm0-103.375a7.5 7.5 0 007.5-7.5v-20.767l17.779-10.732a7.5 7.5 0 10-7.752-12.842L78.474 183.03a7.5 7.5 0 00-3.624 6.421v25a7.5 7.5 0 007.5 7.501zm64.698-64.048a7.468 7.468 0 003.869-1.08l43.287-26.13a7.5 7.5 0 10-7.752-12.842l-43.287 26.13a7.5 7.5 0 003.883 13.922zm168.359-27.168l42.928 26.112a7.495 7.495 0 0010.305-2.511 7.5 7.5 0 00-2.51-10.305l-42.928-26.112a7.501 7.501 0 00-7.795 12.816zm85.856 52.225l17.756 10.801v20.784a7.5 7.5 0 0015 0v-25a7.5 7.5 0 00-3.603-6.408l-21.359-12.992a7.5 7.5 0 10-7.794 12.815zm25.256 75.709a7.5 7.5 0 00-7.5 7.5v51.625a7.5 7.5 0 0015 0V266.17a7.5 7.5 0 00-7.5-7.5zm-68.184 168.447l-42.928 26.112a7.5 7.5 0 003.905 13.909 7.467 7.467 0 003.89-1.093l42.928-26.112c3.539-2.153 4.663-6.767 2.51-10.305s-6.765-4.665-10.305-2.511zm-85.856 52.224l-17.477 10.63L237.49 479.4a7.5 7.5 0 00-7.752 12.842l21.403 12.919a7.49 7.49 0 003.876 1.079c1.35 0 2.701-.364 3.897-1.092l21.359-12.992a7.5 7.5 0 00-7.794-12.815zm-78.275-26.07l-43.288-26.129a7.5 7.5 0 00-7.752 12.842l43.288 26.129a7.496 7.496 0 0010.297-2.545 7.501 7.501 0 00-2.545-10.297zm60.731-252.561a7.5 7.5 0 007.5-7.5v-5.76a7.5 7.5 0 00-15 0v5.76a7.5 7.5 0 007.5 7.5zm0 43.008a7.5 7.5 0 007.5-7.5v-5.76a7.5 7.5 0 00-15 0v5.76a7.5 7.5 0 007.5 7.5z"/><path d="M478.483 396.676c-8.013 0-15.33 3.022-20.882 7.981l-23.582-13.474v-21.764a7.5 7.5 0 00-15 0v13.193l-27.017-15.437c.006-.171.017-.342.017-.513v-149.36c0-5.157-2.737-10.025-7.144-12.707l-122.226-74.349c-.071-.043-.144-.079-.215-.121V98.514l10.045 6.11a7.495 7.495 0 0010.305-2.511 7.5 7.5 0 00-2.51-10.305l-17.84-10.852V65.488c13.696-3.372 23.886-15.752 23.886-30.474 0-17.307-14.08-31.386-31.386-31.386s-31.386 14.08-31.386 31.386c0 14.722 10.19 27.102 23.886 30.474v15.553l-17.695 10.681c-3.546 2.141-4.686 6.75-2.545 10.297s6.75 4.687 10.297 2.545l9.943-6.002v31.547c-.066.039-.135.072-.201.112l-123.197 74.366c-4.433 2.676-7.187 7.555-7.187 12.733v46.165a7.5 7.5 0 0015 0v-37.039l115.584 69.771v140.128l-114.098-68.873c-.064-.128-.122-.258-.195-.384a7.518 7.518 0 00-1.292-1.658v-69.982a7.5 7.5 0 00-15 0v71.199c0 .364.017.726.044 1.086L89.85 383.184v-13.671a7.5 7.5 0 00-15 0v22.241l-22.582 12.902c-5.552-4.959-12.87-7.981-20.882-7.981C14.08 396.676 0 410.756 0 428.063s14.08 31.386 31.386 31.386 31.386-14.08 31.386-31.386c0-3.866-.707-7.57-1.991-10.993l22.821-13.039 16.274 9.824a7.496 7.496 0 0010.297-2.545 7.5 7.5 0 00-2.545-10.297l-9.115-5.502 26.84-15.336 121.879 73.569a15.01 15.01 0 002.356 1.146 7.476 7.476 0 005.345 2.243 7.474 7.474 0 005.361-2.26 14.895 14.895 0 002.353-1.154l48.277-29.366a7.5 7.5 0 10-7.795-12.815l-40.696 24.755V296.199l114.584-69.701v140.093l-46.286 28.155a7.501 7.501 0 007.796 12.816l45.49-27.671 26.789 15.307-9.545 5.806a7.5 7.5 0 003.905 13.909 7.467 7.467 0 003.89-1.093l16.634-10.118 23.397 13.368a31.234 31.234 0 00-1.991 10.993c0 17.307 14.08 31.386 31.386 31.386s31.386-14.08 31.386-31.386-14.078-31.387-31.385-31.387zM31.386 444.449c-9.035 0-16.386-7.351-16.386-16.386s7.351-16.386 16.386-16.386 16.386 7.351 16.386 16.386-7.351 16.386-16.386 16.386zM238.548 35.014c0-9.035 7.351-16.386 16.386-16.386s16.386 7.351 16.386 16.386S263.97 51.4 254.935 51.4s-16.387-7.351-16.387-16.386zm8.887 112.607v7.892a7.5 7.5 0 0015 0v-7.839l107.653 65.484-107.653 65.484v-8.784a7.5 7.5 0 00-15 0v8.837l-108.571-65.538zm231.048 296.828c-9.035 0-16.386-7.351-16.386-16.386s7.351-16.386 16.386-16.386 16.386 7.351 16.386 16.386-7.351 16.386-16.386 16.386z"/></svg>