<svg height="512" width="512" xmlns="http://www.w3.org/2000/svg"><path d="M175.282 239.71c-17.127 0-31.061 13.934-31.061 31.061s13.934 31.062 31.061 31.062 31.061-13.935 31.061-31.062-13.934-31.061-31.061-31.061zm0 47.095c-8.84 0-16.033-7.192-16.033-16.033 0-8.84 7.192-16.032 16.033-16.032s16.033 7.192 16.033 16.032-7.193 16.033-16.033 16.033zm130.375-16.034c0 17.127 13.934 31.062 31.061 31.062s31.061-13.935 31.061-31.062-13.934-31.061-31.061-31.061-31.061 13.934-31.061 31.061zm31.061-16.032c8.841 0 16.033 7.192 16.033 16.032 0 8.841-7.192 16.033-16.033 16.033-8.84 0-16.033-7.192-16.033-16.033 0-8.84 7.193-16.032 16.033-16.032z"/><path d="M511.143 376.469l-33.876-201.735a8.137 8.137 0 00-.075-.384c-4.768-33.451-27.278-60.819-57.144-73.096V87.307c0-12.43-10.112-22.543-22.543-22.543h-28.337c-12.43 0-22.543 10.113-22.543 22.543v15.086c-9.997 4.489-19.214 10.758-27.256 18.689H192.63c-8.042-7.931-17.259-14.2-27.256-18.689V87.307c0-12.43-10.112-22.543-22.543-22.543h-28.337c-12.43 0-22.543 10.113-22.543 22.543v13.948c-29.863 12.276-52.371 39.641-57.142 73.088a7.106 7.106 0 00-.076.391L23.823 239.7a7.514 7.514 0 1014.821 2.489l10.805-64.348c.069-.274.124-.554.162-.838 5.23-38.599 38.583-67.706 77.585-67.706 20.72 0 40.046 7.942 54.764 22.397v10.263c0 15.192 12.36 27.552 27.552 27.552h31.459a7.514 7.514 0 100-15.028h-31.459c-6.906 0-12.524-5.618-12.524-12.524v-5.849H315.01v5.849c0 6.906-5.618 12.524-12.524 12.524h-31.459a7.514 7.514 0 100 15.028h31.459c15.192 0 27.552-12.36 27.552-27.552v-10.263c14.718-14.456 34.044-22.397 54.764-22.397 39.001 0 72.356 29.107 77.585 67.706.038.281.091.557.16.828l33.774 201.126c3.544 21.104-7.785 41.573-27.549 49.777-11.832 4.912-24.771 4.695-36.433-.607s-20.33-14.909-24.408-27.053l-6.917-20.597c-1.321-3.934-5.582-6.056-9.516-4.731a7.514 7.514 0 00-4.731 9.515l6.917 20.597c5.341 15.903 17.163 29.007 32.435 35.95a60.785 60.785 0 0025.142 5.426 60.716 60.716 0 0023.272-4.621c26.265-10.9 41.319-38.1 36.61-66.144zM106.98 96.515v-9.208c0-4.144 3.371-7.514 7.514-7.514h28.337c4.144 0 7.514 3.371 7.514 7.514v9.84a94.075 94.075 0 00-23.148-2.877 92.55 92.55 0 00-20.217 2.245zm254.675.632v-9.84c0-4.144 3.371-7.514 7.514-7.514h28.337c4.144 0 7.514 3.371 7.514 7.514v9.208a92.55 92.55 0 00-20.217-2.245c-7.93 0-15.686.985-23.148 2.877z"/><path d="M391.439 351.968l-13.355-39.766a7.515 7.515 0 00-11.55-3.68c-8.159 5.947-17.815 9.09-27.924 9.09-13.018 0-25.167-5.177-34.21-14.577a7.514 7.514 0 00-5.415-2.305h-85.969a7.516 7.516 0 00-5.415 2.305c-9.043 9.401-21.193 14.577-34.211 14.577-10.109 0-19.766-3.144-27.924-9.09a7.513 7.513 0 00-11.549 3.68l-29.848 88.873c-4.078 12.144-12.746 21.751-24.408 27.053-11.663 5.302-24.601 5.516-36.433.607-19.765-8.204-31.093-28.673-27.549-49.777l17.985-107.1a7.514 7.514 0 00-6.166-8.655c-4.098-.681-7.968 2.073-8.655 6.166L.858 376.469c-4.709 28.044 10.345 55.245 36.61 66.146a60.701 60.701 0 0023.272 4.621 60.788 60.788 0 0025.142-5.426c15.272-6.943 27.094-20.047 32.435-35.95l26.849-79.944c8.697 4.421 18.296 6.726 28.226 6.726 16.046 0 31.088-5.971 42.709-16.883h79.803c11.62 10.911 26.662 16.883 42.708 16.883 9.93 0 19.529-2.304 28.226-6.726l10.356 30.837a7.51 7.51 0 009.516 4.731 7.516 7.516 0 004.729-9.516zm-263.638-211c-12.934 0-23.457 10.523-23.457 23.457v1.701h-1.701c-12.934 0-23.457 10.523-23.457 23.457s10.522 23.457 23.457 23.457h1.701v1.701c0 12.934 10.523 23.457 23.457 23.457s23.457-10.523 23.457-23.457v-1.701h1.701c12.934 0 23.457-10.523 23.457-23.457s-10.522-23.457-23.457-23.457h-1.701v-1.701c-.001-12.934-10.523-23.457-23.457-23.457zm25.158 40.187c4.647 0 8.428 3.781 8.428 8.428s-3.781 8.428-8.428 8.428h-9.216a7.514 7.514 0 00-7.514 7.514v9.216c0 4.648-3.781 8.428-8.428 8.428s-8.429-3.781-8.429-8.428v-9.216a7.514 7.514 0 00-7.514-7.514h-9.215c-4.647 0-8.428-3.781-8.428-8.428 0-4.648 3.781-8.428 8.428-8.428h9.215a7.514 7.514 0 007.514-7.514v-9.216c0-4.648 3.781-8.428 8.429-8.428 4.647 0 8.428 3.781 8.428 8.428v9.216a7.514 7.514 0 007.514 7.514zm236.387-50.449c-12.1 0-21.944 9.844-21.944 21.944s9.844 21.944 21.944 21.944 21.944-9.844 21.944-21.944-9.844-21.944-21.944-21.944zm0 28.86c-3.813 0-6.915-3.103-6.915-6.915s3.102-6.915 6.915-6.915 6.915 3.103 6.915 6.915-3.102 6.915-6.915 6.915zm0 45.006c-12.1 0-21.944 9.844-21.944 21.944 0 12.099 9.844 21.943 21.944 21.943s21.944-9.844 21.944-21.944c0-12.099-9.844-21.943-21.944-21.943zm0 28.859a6.923 6.923 0 01-6.915-6.915c0-3.813 3.102-6.915 6.915-6.915s6.915 3.103 6.915 6.915-3.102 6.915-6.915 6.915zm58.877-43.848c0-12.1-9.844-21.944-21.944-21.944s-21.944 9.844-21.944 21.944 9.844 21.944 21.944 21.944 21.944-9.844 21.944-21.944zm-28.859 0c0-3.813 3.102-6.915 6.915-6.915s6.915 3.103 6.915 6.915-3.102 6.915-6.915 6.915-6.915-3.102-6.915-6.915zm-88.895 0c0 12.1 9.844 21.944 21.944 21.944s21.943-9.844 21.943-21.944-9.844-21.944-21.943-21.944c-12.1 0-21.944 9.844-21.944 21.944zm28.859 0c0 3.813-3.102 6.915-6.915 6.915s-6.915-3.103-6.915-6.915 3.102-6.915 6.915-6.915c3.813-.001 6.915 3.102 6.915 6.915zm-125.516 29.098a7.514 7.514 0 100-15.028h-22.491a7.514 7.514 0 100 15.028zm66.867-15.028h-22.491a7.514 7.514 0 100 15.028h22.491a7.514 7.514 0 100-15.028z"/></svg>