<svg xmlns="http://www.w3.org/2000/svg" width="512" height="512"><path d="M364.5 159.2c1.6-3.8-.2-8.2-4-9.8-11.4-4.8-23.5-7.2-36-7.2-26.3 0-50.8 10.8-68.4 29.8-17.7-19-42.1-29.8-68.4-29.8-51.6 0-93.5 41.9-93.5 93.5 0 43.1 29.4 80.1 70.1 90.5-2.6 4.1-4.9 8.5-7 13.1-6 13.7-2.3 30 9.1 39.7 1.3 1.1 2.8 2.3 4.3 3.5-2.4 12 1 24.7 9.2 33 12.8 13 36.4 28.5 76.1 28.5s63.3-15.5 76.1-28.5c8.2-8.3 11.6-21 9.2-33 1.5-1.2 3-2.3 4.3-3.5 11.4-9.7 15.2-26 9.1-39.7-2-4.6-4.4-9-7-13.1 40.7-10.5 70.1-47.4 70.1-90.5 0-26-11-51-30.1-68.7-3-2.8-7.8-2.6-10.6.4s-2.6 7.8.4 10.6c16 14.8 25.2 35.8 25.2 57.6 0 39.7-29.7 73.2-69.1 77.9-2.7.3-5.1 2.1-6.1 4.7s-.5 5.5 1.3 7.6c4.8 5.6 8.8 12.1 12 19.4 3.4 7.8 1.4 16.7-5.1 22.2-13.1 11.1-37.7 24.4-80 24.4s-66.8-13.3-80-24.4c-6.5-5.5-8.5-14.4-5.1-22.2 3.2-7.3 7.3-13.8 12-19.4 1.8-2.1 2.3-5 1.3-7.6-1-2.6-3.4-4.4-6.1-4.7-39.4-4.7-69.1-38.2-69.1-77.9 0-43.3 35.2-78.5 78.5-78.5 24.7 0 47.5 11.3 62.5 31 1.4 1.9 3.6 3 6 3 2.3 0 4.5-1.1 6-3 15-19.7 37.8-31 62.5-31 10.5 0 20.6 2 30.2 6 4.1 1.8 8.5 0 10.1-3.9zM327 391.5c-.3 5.2-2.2 10.1-5.6 13.5-10.8 10.9-30.9 24-65.4 24s-54.7-13-65.4-24c-3.4-3.4-5.3-8.3-5.6-13.5 16.2 8.5 39.2 15.5 71 15.5 31.8 0 54.8-7 71-15.5z"/><path d="M231.4 294v18.1c0 4.1 3.4 7.5 7.5 7.5s7.5-3.4 7.5-7.5V294c0-4.1-3.4-7.5-7.5-7.5s-7.5 3.4-7.5 7.5zm34.2 0v18.1c0 4.1 3.4 7.5 7.5 7.5s7.5-3.4 7.5-7.5V294c0-4.1-3.4-7.5-7.5-7.5s-7.5 3.4-7.5 7.5zm-91.4-50.8c0 17.1 9.3 31 20.8 31s20.8-13.9 20.8-31-9.3-31-20.8-31-20.8 13.9-20.8 31zm122 0c0 17.1 9.3 31 20.8 31s20.8-13.9 20.8-31-9.3-31-20.8-31-20.8 13.9-20.8 31z"/><path d="M511.9 189.4c-.8-13.2-6.1-24.2-15.5-31.8-8.2-6.7-19-10.2-30.3-9.9-5 .1-10 1.1-14.8 2.8 5.6-37.3 7.2-84.3-40.3-105.7-49.5-22.2-112.5-30.2-155-30.2s-105.5 7.9-155 30.2c-47.6 21.4-46 68.5-40.3 105.7-4.8-1.7-9.8-2.7-14.8-2.8-11.3-.3-22.1 3.2-30.3 9.9C6.3 165.2.9 176.2.1 189.4c-.1 1.6-.1 3.2-.1 4.8 0 18.7 6.4 36.9 18.1 51.4a82.77 82.77 0 0040.3 27.2c-7.8 51.6-15.1 100.3 8 124.5 4.3 4.5 9.3 9.3 15.1 14.3 1.4 1.2 3.2 1.9 4.9 1.9 2.1 0 4.2-.9 5.6-2.6 2.7-3.1 2.4-7.9-.7-10.6-5.4-4.7-10.1-9.2-14.1-13.4-18-18.9-10.9-66.2-4-112l.1-.8c2.9-.7 5.7-2.1 8.2-4 5.2-4.1 8.2-10.3 8.2-17v-60.7c0-13.3-4.8-23.8-12.1-31.3-7.8-45.7-10.5-84.9 29.5-102.8 47.4-21.2 108-28.8 148.9-28.8s101.5 7.6 148.8 28.8c40 18 37.3 57.1 29.5 102.8-7.3 7.5-12.1 18-12.1 31.3v60.7c0 6.7 3 12.8 8.2 17 2.5 2 5.3 3.3 8.2 4l.1.8c6.9 45.8 14 93.1-4 112-18.2 19.1-50.7 43.3-82.7 61.6-38.2 21.8-72.3 33.8-96.1 33.8-25.8 0-78.4-16.7-141.8-63.7-3.3-2.5-8-1.8-10.5 1.6s-1.8 8 1.6 10.5c41.4 30.7 105.8 66.6 150.7 66.6 18.7 0 51.8-6.2 103.6-35.8 33.7-19.3 66.7-43.9 86.1-64.3 23.1-24.2 15.7-72.9 8-124.5 15.7-4.8 29.9-14.3 40.3-27.2 11.7-14.5 18.1-32.8 18.1-51.4 0-1.5 0-3.1-.1-4.7zM15 194.2c0-1.3 0-2.6.1-4 1.1-19.2 15.4-27.6 29.3-27.6h1c12 .3 20 5.7 24.6 13-2.7-.9-5.6-1.4-8.5-1.4-13.8-.4-28.3 8.7-29.4 26.8-.1 1-.1 2-.1 2.9 0 25.1 18.5 45.9 42.6 49.6-.1 1.9-1 3.7-2.5 4.9-.9.7-2.8 1.8-5.4 1.2-30.4-7.1-51.7-34-51.7-65.4zm59.7 8.8v35.3c-15.8-3.4-27.6-17.5-27.6-34.3 0-.7 0-1.4.1-2.1.5-9.4 7.5-12.7 13.5-12.7h.5c10 .2 13.5 7.6 13.5 13.8zm376.2-13.9h.5c6 0 13 3.3 13.5 12.7 0 .7.1 1.4.1 2.1 0 16.8-11.8 30.9-27.6 34.3V203c-.1-6.2 3.4-13.6 13.5-13.9zm-5.7 70.5c-2.6.6-4.5-.5-5.4-1.2-1.5-1.2-2.4-3-2.5-4.9 24.1-3.6 42.6-24.5 42.6-49.6 0-1 0-2-.1-2.9-1.1-18.1-15.6-27.2-29.4-26.8-2.9.1-5.7.6-8.5 1.4 4.6-7.3 12.6-12.6 24.6-13h1c14 0 28.2 8.4 29.3 27.6.1 1.3.1 2.6.1 4 .1 31.4-21.2 58.3-51.7 65.4z"/></svg>