<svg xmlns="http://www.w3.org/2000/svg" width="512" height="512"><path d="M268.1 397.4h-83.6l-50-84.1 44.8-75.3c2.1-3.6 1-8.2-2.6-10.3-3.6-2.1-8.2-1-10.3 2.6l-47.1 79.1c-1.4 2.4-1.4 5.3 0 7.7l47.7 80.2h-9.7c-4.1 0-7.5 3.4-7.5 7.5v60c0 4.1 3.4 7.5 7.5 7.5H182c4.1 0 7.5-3.4 7.5-7.5s-3.4-7.5-7.5-7.5h-17.2v-45h103.4c4.1 0 7.5-3.4 7.5-7.5-.1-4-3.4-7.4-7.6-7.4z"/><path d="M504.5 288.8h-16.7c-1.7-55.2-22.8-107.7-60-148.7-24.2-26.7-53.9-47.1-86.7-60.1H450c3.6 13.2 15.7 23 30.1 23 17.2 0 31.2-14 31.2-31.2s-14-31.2-31.2-31.2c-14.8 0-27.3 10.4-30.4 24.4H286.8V47.1c0-4.1-3.4-7.5-7.5-7.5H232c-4.1 0-7.5 3.4-7.5 7.5v17.8H61.6C58.5 51 46 40.5 31.2 40.5 14 40.5 0 54.5 0 71.7s14 31.2 31.2 31.2c14.3 0 26.4-9.7 30.1-23h108.9c-32.8 13-62.5 33.4-86.7 60.1-37.2 41-58.3 93.6-60 148.7h-16c-4.1 0-7.5 3.4-7.5 7.5v47.3c0 4.1 3.4 7.5 7.5 7.5h47.3c4.1 0 7.5-3.4 7.5-7.5v-47.3c0-4.1-3.4-7.5-7.5-7.5H38.4c1.7-51.4 21.5-100.4 56.1-138.6 34.1-37.7 80-62 129.9-69.2v13.5c0 4.1 3.4 7.5 7.5 7.5h11l-61 102.5c-2.1 3.6-1 8.2 2.6 10.3 3.6 2.1 8.2 1 10.3-2.6l53.3-89.5v139c-12.9 3.3-22.5 15.1-22.5 29.1 0 16.6 13.5 30 30 30s30-13.5 30-30c0-14-9.6-25.7-22.5-29.1v-139l113.5 190.7-50 84.1h-28.5c-3.9 0-7.1 3-7.5 6.7v.8c0 4.1 3.4 7.5 7.5 7.5h48.3v45H212c-4.1 0-7.5 3.4-7.5 7.5s3.4 7.5 7.5 7.5h141.9c4.1 0 7.5-3.4 7.5-7.5v-60c0-4.1-3.4-7.5-7.5-7.5h-9.7l47.7-80.2c1.4-2.4 1.4-5.3 0-7.7L268.2 101.9h11c4.1 0 7.5-3.4 7.5-7.5V80.9c49.9 7.2 95.8 31.5 129.9 69.2 34.6 38.2 54.4 87.2 56.1 138.6h-15.6c-4.1 0-7.5 3.4-7.5 7.5v47.3c0 4.1 3.4 7.5 7.5 7.5h47.3c4.1 0 7.5-3.4 7.5-7.5v-47.3c.1-4.1-3.3-7.4-7.4-7.4zM480 55.6c8.9 0 16.1 7.2 16.1 16.1s-7.2 16.1-16.1 16.1-16.1-7.2-16.1-16.1c0-8.9 7.2-16.1 16.1-16.1zM31.2 87.9c-8.9 0-16.1-7.2-16.1-16.1s7.2-16.1 16.1-16.1 16.1 7.2 16.1 16.1-7.2 16.1-16.1 16.1zm16.1 215.9v32.3H15v-32.3h32.3zm223.3-13c0 8.3-6.7 15-15 15s-15-6.7-15-15 6.7-15 15-15c8.3-.1 15 6.7 15 15zm1.1-218.4v14.5h-32.3V54.6h32.3v17.8zM497 336.1h-32.3v-32.3H497v32.3z"/></svg>