<svg data-name="Слой 1" xmlns="http://www.w3.org/2000/svg" width="512" height="512"><path d="M496.363 484.473l-4.277-25.032a7.5 7.5 0 00-14.785 2.528l4.277 25.027A8.564 8.564 0 01473.137 497h-52.57l-9.391-57.7a7.5 7.5 0 00-14.805 2.41l9 55.29H106.63l8.996-55.29a7.5 7.5 0 00-14.805-2.41L91.434 497H38.859a8.558 8.558 0 01-8.437-10.004l10.246-59.988a62.957 62.957 0 0135.719-46.422 7.42 7.42 0 002.687-1.156 61.66 61.66 0 016.301-2.153l90.008-19.125a144.751 144.751 0 00161.234 0l90.004 19.125a62.896 62.896 0 0144.707 49.73 7.5 7.5 0 1014.785-2.527 77.961 77.961 0 00-55.683-61.714 5.562 5.562 0 00-.457-.11l-93.387-19.847-9.043-1.922c-5.82-1.168-12.328-9.14-12.328-18.055v-25.98c13.84-12.414 28.266-26.989 34.355-35.938a101.198 101.198 0 0017.375-51.312l.266-4.762h3.5a14.2 14.2 0 0013.348-9.402h7.703a15.46 15.46 0 0015.445-15.442V115.02a15.464 15.464 0 00-15.445-15.446h-7.703a14.214 14.214 0 00-12.297-9.363 99.398 99.398 0 00-24.88-53.59C313.84.54 265.274 0 262.544 0h-13.016c-2.109.02-51.117.266-84.406 36.613a99.376 99.376 0 00-24.883 53.594 14.214 14.214 0 00-12.336 9.367H120.2a15.464 15.464 0 00-15.445 15.445v24.989H93.07a25.772 25.772 0 00-25.746 25.746v202.562a78.029 78.029 0 00-41.441 56.164l-10.246 59.993A23.558 23.558 0 0038.859 512h434.278a23.563 23.563 0 0023.226-27.527zM384.887 114.574h6.87a.445.445 0 01.446.446v64.972a.445.445 0 01-.445.446h-6.871zm-68.16 238.028a129.836 129.836 0 01-121.473-.008c10.383-6.051 16.531-18.875 16.531-29.762v-13.223c6.149 4.903 11.278 8.485 14.223 9.743a76.8 76.8 0 0059.98 0c2.95-1.258 8.078-4.844 14.223-9.743v13.223c0 10.895 6.164 23.734 16.516 29.77zM176.184 46.746C204.902 15.386 249.054 15 249.508 15h13.008c.652 0 44.511.309 73.3 31.75a84.19 84.19 0 0120.774 43.422H155.406a84.194 84.194 0 0120.778-43.426zm-34.11 58.426h227.813v84.668H286.44a21.952 21.952 0 01-11.355-3.164 36.86 36.86 0 00-38.211 0 21.952 21.952 0 01-11.355 3.164h-13.543a7.5 7.5 0 000 15h13.543a36.948 36.948 0 0019.109-5.324 21.91 21.91 0 0122.703 0 36.934 36.934 0 0019.106 5.324h65.75l-.223 3.918a86.21 86.21 0 01-14.793 43.71c-10.828 15.903-50.192 50.153-57.067 53.083a61.737 61.737 0 01-48.214 0c-2.258-.961-10.508-6.977-22.543-17.606a4.094 4.094 0 00-.196-.172q-2.22-1.962-4.605-4.132c-13.778-12.532-25.164-24.477-29.723-31.172a86.23 86.23 0 01-14.797-43.719l-.218-3.91h17.238a7.5 7.5 0 000-15h-34.973zm-22.316 9.848a.445.445 0 01.445-.446h6.871v65.864h-6.87a.445.445 0 01-.446-.446zm-37.434 50.734a10.758 10.758 0 0110.746-10.746h11.688v24.984a15.464 15.464 0 0015.445 15.446h7.7a14.201 14.201 0 0013.35 9.402h3.532l.27 4.754a101.212 101.212 0 0017.375 51.32c6.09 8.95 20.515 23.524 34.355 35.938v25.98c0 8.914-6.508 16.887-12.41 18.074l-8.96 1.903-93.09 19.78z"/></svg>