<?xml version="1.0" encoding="utf-8"?>
<!-- Generator: Adobe Illustrator 21.1.0, SVG Export Plug-In . SVG Version: 6.00 Build 0)  -->
<svg version="1.1" id="Слой_1" xmlns="http://www.w3.org/2000/svg" xmlns:xlink="http://www.w3.org/1999/xlink" x="0px" y="0px"
	 width="512px" height="512px" viewBox="0 0 512 512" style="enable-background:new 0 0 512 512;" xml:space="preserve">
<g>
	<path d="M364.5,159.2c1.6-3.8-0.2-8.2-4-9.8c-11.4-4.8-23.5-7.2-36-7.2c-26.3,0-50.8,10.8-68.4,29.8c-17.7-19-42.1-29.8-68.4-29.8
		c-51.6,0-93.5,41.9-93.5,93.5c0,43.1,29.4,80.1,70.1,90.5c-2.6,4.1-4.9,8.5-7,13.1c-6,13.7-2.3,30,9.1,39.7
		c1.3,1.1,2.8,2.3,4.3,3.5c-2.4,12,1,24.7,9.2,33c12.8,13,36.4,28.5,76.1,28.5s63.3-15.5,76.1-28.5c8.2-8.3,11.6-21,9.2-33
		c1.5-1.2,3-2.3,4.3-3.5c11.4-9.7,15.2-26,9.1-39.7c-2-4.6-4.4-9-7-13.1c40.7-10.5,70.1-47.4,70.1-90.5c0-26-11-51-30.1-68.7
		c-3-2.8-7.8-2.6-10.6,0.4c-2.8,3-2.6,7.8,0.4,10.6c16,14.8,25.2,35.8,25.2,57.6c0,39.7-29.7,73.2-69.1,77.9
		c-2.7,0.3-5.1,2.1-6.1,4.7c-1,2.6-0.5,5.5,1.3,7.6c4.8,5.6,8.8,12.1,12,19.4c3.4,7.8,1.4,16.7-5.1,22.2
		c-13.1,11.1-37.7,24.4-80,24.4s-66.8-13.3-80-24.4c-6.5-5.5-8.5-14.4-5.1-22.2c3.2-7.3,7.3-13.8,12-19.4c1.8-2.1,2.3-5,1.3-7.6
		c-1-2.6-3.4-4.4-6.1-4.7c-39.4-4.7-69.1-38.2-69.1-77.9c0-43.3,35.2-78.5,78.5-78.5c24.7,0,47.5,11.3,62.5,31c1.4,1.9,3.6,3,6,3
		c2.3,0,4.5-1.1,6-3c15-19.7,37.8-31,62.5-31c10.5,0,20.6,2,30.2,6C358.5,164.9,362.9,163.1,364.5,159.2L364.5,159.2z M327,391.5
		c-0.3,5.2-2.2,10.1-5.6,13.5c-10.8,10.9-30.9,24-65.4,24s-54.7-13-65.4-24c-3.4-3.4-5.3-8.3-5.6-13.5c16.2,8.5,39.2,15.5,71,15.5
		C287.8,407,310.8,400,327,391.5L327,391.5z"/>
	<path d="M231.4,294v18.1c0,4.1,3.4,7.5,7.5,7.5s7.5-3.4,7.5-7.5V294c0-4.1-3.4-7.5-7.5-7.5S231.4,289.9,231.4,294z"/>
	<path d="M265.6,294v18.1c0,4.1,3.4,7.5,7.5,7.5s7.5-3.4,7.5-7.5V294c0-4.1-3.4-7.5-7.5-7.5S265.6,289.9,265.6,294z"/>
	<path d="M174.2,243.2c0,17.1,9.3,31,20.8,31c11.5,0,20.8-13.9,20.8-31s-9.3-31-20.8-31C183.5,212.2,174.2,226.1,174.2,243.2
		L174.2,243.2z"/>
	<path d="M296.2,243.2c0,17.1,9.3,31,20.8,31c11.5,0,20.8-13.9,20.8-31s-9.3-31-20.8-31C305.5,212.2,296.2,226.1,296.2,243.2z"/>
	<path d="M511.9,189.4c-0.8-13.2-6.1-24.2-15.5-31.8c-8.2-6.7-19-10.2-30.3-9.9c-5,0.1-10,1.1-14.8,2.8
		c5.6-37.3,7.2-84.3-40.3-105.7c-49.5-22.2-112.5-30.2-155-30.2s-105.5,7.9-155,30.2c-47.6,21.4-46,68.5-40.3,105.7
		c-4.8-1.7-9.8-2.7-14.8-2.8c-11.3-0.3-22.1,3.2-30.3,9.9c-9.3,7.6-14.7,18.6-15.5,31.8C0,191,0,192.6,0,194.2
		c0,18.7,6.4,36.9,18.1,51.4c10.4,12.9,24.5,22.4,40.3,27.2c-7.8,51.6-15.1,100.3,8,124.5c4.3,4.5,9.3,9.3,15.1,14.3
		c1.4,1.2,3.2,1.9,4.9,1.9c2.1,0,4.2-0.9,5.6-2.6c2.7-3.1,2.4-7.9-0.7-10.6c-5.4-4.7-10.1-9.2-14.1-13.4c-18-18.9-10.9-66.2-4-112
		l0.1-0.8c2.9-0.7,5.7-2.1,8.2-4c5.2-4.1,8.2-10.3,8.2-17v-60.7c0-13.3-4.8-23.8-12.1-31.3c-7.8-45.7-10.5-84.9,29.5-102.8
		C154.5,37.1,215.1,29.5,256,29.5s101.5,7.6,148.8,28.8c40,18,37.3,57.1,29.5,102.8c-7.3,7.5-12.1,18-12.1,31.3v60.7
		c0,6.7,3,12.8,8.2,17c2.5,2,5.3,3.3,8.2,4l0.1,0.8c6.9,45.8,14,93.1-4,112c-18.2,19.1-50.7,43.3-82.7,61.6
		c-38.2,21.8-72.3,33.8-96.1,33.8c-25.8,0-78.4-16.7-141.8-63.7c-3.3-2.5-8-1.8-10.5,1.6s-1.8,8,1.6,10.5
		c41.4,30.7,105.8,66.6,150.7,66.6c18.7,0,51.8-6.2,103.6-35.8c33.7-19.3,66.7-43.9,86.1-64.3c23.1-24.2,15.7-72.9,8-124.5
		c15.7-4.8,29.9-14.3,40.3-27.2c11.7-14.5,18.1-32.8,18.1-51.4C512,192.6,512,191,511.9,189.4L511.9,189.4z M15,194.2
		c0-1.3,0-2.6,0.1-4c1.1-19.2,15.4-27.6,29.3-27.6c0.3,0,0.7,0,1,0c12,0.3,20,5.7,24.6,13c-2.7-0.9-5.6-1.4-8.5-1.4
		c-13.8-0.4-28.3,8.7-29.4,26.8c-0.1,1-0.1,2-0.1,2.9c0,25.1,18.5,45.9,42.6,49.6c-0.1,1.9-1,3.7-2.5,4.9c-0.9,0.7-2.8,1.8-5.4,1.2
		C36.3,252.5,15,225.6,15,194.2L15,194.2z M74.7,203v35.3c-15.8-3.4-27.6-17.5-27.6-34.3c0-0.7,0-1.4,0.1-2.1
		c0.5-9.4,7.5-12.7,13.5-12.7c0.2,0,0.3,0,0.5,0C71.2,189.4,74.7,196.8,74.7,203L74.7,203z M450.9,189.1c0.2,0,0.3,0,0.5,0
		c6,0,13,3.3,13.5,12.7c0,0.7,0.1,1.4,0.1,2.1c0,16.8-11.8,30.9-27.6,34.3V203C437.3,196.8,440.8,189.4,450.9,189.1z M445.2,259.6
		c-2.6,0.6-4.5-0.5-5.4-1.2c-1.5-1.2-2.4-3-2.5-4.9c24.1-3.6,42.6-24.5,42.6-49.6c0-1,0-2-0.1-2.9c-1.1-18.1-15.6-27.2-29.4-26.8
		c-2.9,0.1-5.7,0.6-8.5,1.4c4.6-7.3,12.6-12.6,24.6-13c0.3,0,0.7,0,1,0c14,0,28.2,8.4,29.3,27.6c0.1,1.3,0.1,2.6,0.1,4
		C497,225.6,475.7,252.5,445.2,259.6L445.2,259.6z"/>
</g>
</svg>
