<?xml version="1.0" encoding="utf-8"?>
<!-- Generator: Adobe Illustrator 21.1.0, SVG Export Plug-In . SVG Version: 6.00 Build 0)  -->
<svg version="1.1" id="Capa_1" xmlns="http://www.w3.org/2000/svg" xmlns:xlink="http://www.w3.org/1999/xlink" x="0px" y="0px"
	 width="512px" height="512px" viewBox="0 0 512 512" style="enable-background:new 0 0 512 512;" xml:space="preserve">
<g>
	<g>
		<path d="M268.1,397.4h-83.6l-50-84.1l44.8-75.3c2.1-3.6,1-8.2-2.6-10.3c-3.6-2.1-8.2-1-10.3,2.6l-47.1,79.1
			c-1.4,2.4-1.4,5.3,0,7.7l47.7,80.2h-9.7c-4.1,0-7.5,3.4-7.5,7.5v60c0,4.1,3.4,7.5,7.5,7.5h24.7c4.1,0,7.5-3.4,7.5-7.5
			s-3.4-7.5-7.5-7.5h-17.2v-45h15.3c0.1,0,0.1,0,0.2,0h87.9c4.1,0,7.5-3.4,7.5-7.5c0,0,0,0,0,0C275.6,400.8,272.3,397.4,268.1,397.4
			z"/>
	</g>
</g>
<g>
	<g>
		<path d="M504.5,288.8h-16.7c-1.7-55.2-22.8-107.7-60-148.7c-24.2-26.7-53.9-47.1-86.7-60.1h108.9c3.6,13.2,15.7,23,30.1,23
			c17.2,0,31.2-14,31.2-31.2s-14-31.2-31.2-31.2c-14.8,0-27.3,10.4-30.4,24.4H286.8V47.1c0-4.1-3.4-7.5-7.5-7.5h-47.3
			c-4.1,0-7.5,3.4-7.5,7.5v17.8H61.6C58.5,51,46,40.5,31.2,40.5C14,40.5,0,54.5,0,71.7c0,17.2,14,31.2,31.2,31.2
			c14.3,0,26.4-9.7,30.1-23h108.9c-32.8,13-62.5,33.4-86.7,60.1c-37.2,41-58.3,93.6-60,148.7H7.5c-4.1,0-7.5,3.4-7.5,7.5v47.3
			c0,4.1,3.4,7.5,7.5,7.5h47.3c4.1,0,7.5-3.4,7.5-7.5v-47.3c0-4.1-3.4-7.5-7.5-7.5H38.4c1.7-51.4,21.5-100.4,56.1-138.6
			c34.1-37.7,80-62,129.9-69.2v13.5c0,4.1,3.4,7.5,7.5,7.5h11l-61,102.5c-2.1,3.6-1,8.2,2.6,10.3c3.6,2.1,8.2,1,10.3-2.6l53.3-89.5
			v139c-12.9,3.3-22.5,15.1-22.5,29.1c0,16.6,13.5,30,30,30s30-13.5,30-30c0-14-9.6-25.7-22.5-29.1v-139l113.5,190.7l-50,84.1h-28.5
			c-3.9,0-7.1,3-7.5,6.7c0,0.3,0,0.5,0,0.8c0,4.1,3.4,7.5,7.5,7.5h32.8c0.1,0,0.1,0,0.2,0h15.3v45H212c-4.1,0-7.5,3.4-7.5,7.5
			s3.4,7.5,7.5,7.5h141.9c4.1,0,7.5-3.4,7.5-7.5v-60c0-4.1-3.4-7.5-7.5-7.5h-9.7l47.7-80.2c1.4-2.4,1.4-5.3,0-7.7L268.2,101.9h11
			c4.1,0,7.5-3.4,7.5-7.5V80.9c49.9,7.2,95.8,31.5,129.9,69.2c34.6,38.2,54.4,87.2,56.1,138.6h-15.6c-4.1,0-7.5,3.4-7.5,7.5v47.3
			c0,4.1,3.4,7.5,7.5,7.5h47.3c4.1,0,7.5-3.4,7.5-7.5v-47.3C512,292.1,508.6,288.8,504.5,288.8z M480,55.6c8.9,0,16.1,7.2,16.1,16.1
			s-7.2,16.1-16.1,16.1s-16.1-7.2-16.1-16.1C463.9,62.8,471.1,55.6,480,55.6z M31.2,87.9c-8.9,0-16.1-7.2-16.1-16.1
			s7.2-16.1,16.1-16.1s16.1,7.2,16.1,16.1S40.1,87.9,31.2,87.9z M47.3,303.8v32.3H15v-32.3H47.3z M270.6,290.8c0,8.3-6.7,15-15,15
			s-15-6.7-15-15c0-8.3,6.7-15,15-15C263.9,275.7,270.6,282.5,270.6,290.8z M271.7,72.4C271.7,72.4,271.7,72.4,271.7,72.4v14.5
			h-32.3V72.4c0,0,0,0,0,0V54.6h32.3V72.4z M497,336.1h-32.3v-32.3H497V336.1z"/>
	</g>
</g>
</svg>
