<svg id="Слой_1" data-name="Слой 1" xmlns="http://www.w3.org/2000/svg" width="512" height="512" viewBox="0 0 512 512">
  <title>virtual-reality</title>
  <path d="M496.3633,484.47266,492.086,459.44141a7.49981,7.49981,0,0,0-14.78516,2.52734l4.27734,25.02734A8.56377,8.56377,0,0,1,473.13673,497H420.56642l-9.39062-57.69922a7.49979,7.49979,0,0,0-14.80469,2.41016l9,55.28906H106.62892l8.99609-55.28906a7.49979,7.49979,0,0,0-14.80469-2.41016L91.43361,497H38.85939a8.55836,8.55836,0,0,1-8.4375-10.00391L40.668,427.00781a62.9568,62.9568,0,0,1,35.71875-46.42187,7.41976,7.41976,0,0,0,2.6875-1.15625,61.65928,61.65928,0,0,1,6.30078-2.15234l90.00781-19.125a144.75113,144.75113,0,0,0,161.23438,0l90.00391,19.125a62.89633,62.89633,0,0,1,44.707,49.73047,7.49981,7.49981,0,1,0,14.78516-2.52734,77.96138,77.96138,0,0,0-55.68359-61.71484c-.14844-.043-.30078-.07812-.457-.10937L336.586,342.80859l-9.043-1.92187c-5.82031-1.168-12.32812-9.14062-12.32812-18.05469V296.85156c13.83984-12.41406,28.26563-26.98828,34.35547-35.9375a101.19772,101.19772,0,0,0,17.375-51.3125l.26563-4.76172h3.5a14.2,14.2,0,0,0,13.34766-9.40234h7.70313A15.46069,15.46069,0,0,0,407.207,179.99609V115.01953a15.464,15.464,0,0,0-15.44531-15.44531h-7.70312a14.21372,14.21372,0,0,0-12.29687-9.36328,99.398,99.398,0,0,0-24.87891-53.58984C313.83986.53906,265.27345,0,262.543,0H249.52736c-2.10937.01953-51.11719.26563-84.40625,36.61328A99.37569,99.37569,0,0,0,140.2383,90.207a14.21434,14.21434,0,0,0-12.33594,9.36719h-7.70312a15.464,15.464,0,0,0-15.44531,15.44531v24.98828H93.07033a25.77169,25.77169,0,0,0-25.74609,25.74609v202.5625a78.02865,78.02865,0,0,0-41.44141,56.16406L15.63673,484.47266A23.55762,23.55762,0,0,0,38.85939,512H473.13673a23.563,23.563,0,0,0,23.22656-27.52734ZM384.88673,114.57422h6.87109a.44511.44511,0,0,1,.44531.44531v64.97266a.44511.44511,0,0,1-.44531.44531h-6.87109ZM316.72658,352.60156a129.8356,129.8356,0,0,1-121.47266-.00781c10.38281-6.05078,16.53125-18.875,16.53125-29.76172V309.60938c6.14844,4.90234,11.27734,8.48438,14.22266,9.74219a76.79964,76.79964,0,0,0,59.98047,0c2.94922-1.25781,8.07813-4.84375,14.22266-9.74219V322.832C300.211,333.72656,306.375,346.56641,316.72658,352.60156ZM176.18361,46.74609C204.90236,15.38672,249.0547,15,249.50783,15h13.00781c.65234,0,44.51172.30859,73.30078,31.75a84.18979,84.18979,0,0,1,20.77344,43.42188H155.40626A84.19413,84.19413,0,0,1,176.18361,46.74609Zm-34.10937,58.42578h227.8125v84.668H286.44142a21.95175,21.95175,0,0,1-11.35547-3.16406,36.86025,36.86025,0,0,0-38.21094,0,21.95175,21.95175,0,0,1-11.35547,3.16406h-13.543a7.5,7.5,0,0,0,0,15h13.543a36.94811,36.94811,0,0,0,19.10938-5.32422,21.91006,21.91006,0,0,1,22.70313,0,36.93435,36.93435,0,0,0,19.10547,5.32422h65.75l-.22266,3.918a86.21034,86.21034,0,0,1-14.793,43.71094c-10.82812,15.90234-50.19141,50.15234-57.06641,53.082a61.737,61.737,0,0,1-48.21484,0c-2.25781-.96094-10.50781-6.97656-22.543-17.60547-.0625-.05859-.12891-.11719-.19531-.17187q-2.2207-1.96289-4.60547-4.13281c-13.77734-12.53125-25.16406-24.47656-29.72266-31.17187A86.22965,86.22965,0,0,1,160.02736,208.75l-.21875-3.91016h17.23828a7.5,7.5,0,0,0,0-15H142.07423Zm-22.31641,9.84766a.44511.44511,0,0,1,.44531-.44531h6.87109V180.4375h-6.87109a.44511.44511,0,0,1-.44531-.44531ZM82.32423,165.75391a10.7578,10.7578,0,0,1,10.74609-10.74609h11.6875v24.98438a15.464,15.464,0,0,0,15.44531,15.44531h7.69922a14.20126,14.20126,0,0,0,13.35156,9.40234h3.53125l.26953,4.75391a101.21248,101.21248,0,0,0,17.375,51.32031c6.08984,8.94922,20.51563,23.52344,34.35547,35.9375V322.832c0,8.91406-6.50781,16.88672-12.41016,18.07422l-8.96094,1.90234L82.32423,362.58984Z"/>
</svg>
