<svg height="386pt" viewBox="0 -51 386 386" width="386pt" xmlns="http://www.w3.org/2000/svg"><path d="M33 0h320c17.074.023 31.32 13.05 32.863 30.059L214.398 175.48c-12.289 10.48-30.37 10.489-42.668.016L.133 30.196C1.602 13.132 15.87.022 33 0zm0 283.14a32.807 32.807 0 01-19.98-6.757l95.699-97.887a7 7 0 10-10.012-9.785L3.898 265.684A32.832 32.832 0 010 250.14V48.43l162.684 137.754c17.515 14.91 43.265 14.902 60.77-.028L386 48.296v201.845a32.762 32.762 0 01-3.926 15.593L286.7 168.695a7.001 7.001 0 00-9.875-.062 7.002 7.002 0 00-.11 9.875l96.227 97.906A32.814 32.814 0 01353 283.141zm0 0"/></svg>